<svg width="32" height="32" viewBox="0 0 32 32" fill="none" xmlns="http://www.w3.org/2000/svg">
<path d="M20.6663 7.33439L24.4376 11.1056M17.3333 28.0002H28M4 28.0007L4.06327 27.5579C4.28715 25.9907 4.39909 25.2071 4.65372 24.4755C4.87966 23.8264 5.18833 23.2091 5.57208 22.6388C6.00455 21.9962 6.56425 21.4365 7.68366 20.3171L23.2143 4.78642C24.2557 3.74502 25.9442 3.74502 26.9856 4.78642C28.027 5.82782 28.027 7.51626 26.9856 8.55765L11.1699 24.3733C10.1544 25.3888 9.64663 25.8966 9.06826 26.3004C8.5549 26.6588 8.00124 26.9557 7.41864 27.185C6.76228 27.4434 6.05834 27.5854 4.65057 27.8695L4 28.0007Z" stroke="white" stroke-width="3" stroke-linecap="round" stroke-linejoin="round"/>
</svg>
