<svg width="24" height="24" viewBox="0 0 24 24" fill="white" xmlns="http://www.w3.org/2000/svg">
<path d="M9 17H15M3 14.6V12.1301C3 10.9814 3 10.4071 3.14805 9.87813C3.2792 9.4096 3.49473 8.96892 3.78405 8.57774C4.11067 8.13614 4.56404 7.78352 5.47078 7.07828L8.07078 5.05606C9.47608 3.96304 10.1787 3.41654 10.9546 3.20646C11.6392 3.0211 12.3608 3.0211 13.0454 3.20646C13.8213 3.41654 14.5239 3.96305 15.9292 5.05606L18.5292 7.07828C19.436 7.78352 19.8893 8.13614 20.2159 8.57774C20.5053 8.96892 20.7208 9.4096 20.8519 9.87813C21 10.4071 21 10.9814 21 12.1301V14.6C21 16.8402 21 17.9603 20.564 18.816C20.1805 19.5686 19.5686 20.1805 18.816 20.564C17.9603 21 16.8402 21 14.6 21H9.4C7.15979 21 6.03969 21 5.18404 20.564C4.43139 20.1805 3.81947 19.5686 3.43597 18.816C3 17.9603 3 16.8402 3 14.6Z" stroke="#98A4A8" stroke-width="2" fill= "white" stroke-linecap="round" stroke-linejoin="round"/>
</svg>
