<svg width="103" height="102" viewBox="0 0 103 102" fill="none" xmlns="http://www.w3.org/2000/svg">
<path fill-rule="evenodd" clip-rule="evenodd" d="M47.352 0.0702126C64.3557 -0.715937 78.6568 5.09963 90.2555 17.5166C92.9305 20.7358 95.2679 24.1744 97.2679 27.8327C99.9286 32.9301 101.587 38.3411 102.244 44.0654C102.244 44.116 102.244 44.1666 102.244 44.2172C101.968 44.5007 101.667 44.7788 101.34 45.0516C99.6815 45.1274 98.0226 45.1527 96.363 45.1274C96.363 45.0262 96.363 44.9252 96.363 44.824C96.0013 43.0637 95.5489 41.3444 95.0058 39.6659C94.9413 39.1676 94.7905 38.7124 94.5534 38.3006C93.244 34.0986 91.3339 30.2047 88.8229 26.6191C87.939 25.1226 86.8834 23.7572 85.656 22.523C85.063 21.7482 84.4347 20.9896 83.771 20.2473C83.1803 19.6364 82.5519 19.0801 81.8859 18.5786C80.6671 17.4025 79.3601 16.3406 77.965 15.3927C77.74 14.9644 77.3881 14.7115 76.9094 14.6342C76.3196 14.0828 75.6662 13.6024 74.949 13.1929C71.8498 11.4392 68.6326 9.99796 65.2976 8.86926C64.7452 8.55143 64.142 8.32387 63.4879 8.18657C61.8777 7.85737 60.269 7.52862 58.6622 7.20047C58.495 7.08063 58.294 7.00477 58.059 6.97291C56.5541 6.79633 55.0461 6.6698 53.5349 6.59364C51.8017 6.41781 50.0425 6.39248 48.2568 6.51779C47.4204 6.57377 46.6161 6.70029 45.844 6.89706C44.8892 6.8605 43.9844 7.01221 43.1295 7.35218C41.9752 7.46581 40.8694 7.71871 39.8118 8.11072C39.2596 8.14455 38.757 8.29626 38.3038 8.56584C37.638 8.62061 37.0348 8.82284 36.4942 9.17268C34.4735 9.73445 32.5633 10.5435 30.7636 11.6C30.1853 11.8655 29.6325 12.1689 29.1048 12.5102C27.8257 13.0908 26.6696 13.8494 25.6363 14.7859C24.264 15.5279 23.0576 16.4886 22.017 17.6683C21.2244 18.2622 20.4704 18.9196 19.755 19.6405C19.0384 20.3602 18.3849 21.1187 17.7945 21.9161C17.2862 22.4275 16.8338 22.9837 16.4373 23.5849C15.4349 24.6907 14.5803 25.9044 13.8737 27.2259C12.9055 28.6164 12.0509 30.0829 11.31 31.6254C10.4904 33.124 9.78675 34.6916 9.19876 36.3284C9.19876 36.3789 9.19876 36.4295 9.19876 36.4801C8.51925 37.9751 8.01647 39.5429 7.69073 41.183C7.23968 42.4478 6.93807 43.7626 6.78591 45.1274C5.07611 45.1527 3.3669 45.1274 1.6586 45.0516C0.926906 44.3825 0.700701 43.5481 0.979989 42.5484C1.23077 41.3883 1.45698 40.2251 1.6586 39.0591C2.00274 38.3573 2.20391 37.5988 2.26182 36.7835C3.87903 32.0053 5.99028 27.4541 8.59555 23.1298C12.7983 16.8539 18.0764 11.6705 24.4299 7.57974C26.4306 6.4474 28.4414 5.36011 30.462 4.31803C32.5954 3.39125 34.7569 2.58219 36.9466 1.89071C38.7898 1.42466 40.6497 1.02021 42.5263 0.677043C44.1528 0.447206 45.7613 0.24498 47.352 0.0702126Z" fill="#FEFDFC"/>
<path fill-rule="evenodd" clip-rule="evenodd" d="M53.5347 6.5935C50.9635 6.54313 48.3999 6.64432 45.8438 6.89691C46.6159 6.70015 47.4202 6.57362 48.2566 6.51764C50.0423 6.39233 51.8015 6.41767 53.5347 6.5935Z" fill="#E38F88"/>
<path fill-rule="evenodd" clip-rule="evenodd" d="M53.5348 6.59361C55.2115 6.89187 56.9206 7.09409 58.6621 7.20044C58.6788 7.29404 58.729 7.3699 58.8129 7.428C60.8911 7.72277 62.9019 8.20323 64.845 8.86923C64.4428 8.86923 64.0408 8.86923 63.6386 8.86923C63.6116 9.18872 63.4608 9.44147 63.1862 9.62776C62.8248 9.39004 62.4226 9.26367 61.9797 9.24849C61.8535 9.09512 61.8033 8.91808 61.8289 8.71752C61.5273 8.71752 61.2257 8.71752 60.9241 8.71752C60.9241 8.51529 60.9241 8.31291 60.9241 8.11069C60.6679 8.08641 60.4165 8.1116 60.1701 8.18654C60.0766 8.52212 59.9006 8.80035 59.6423 9.02093C59.3058 8.63393 58.9792 8.63393 58.6621 9.02093C58.461 8.61633 58.2599 8.61633 58.0589 9.02093C57.3906 8.71372 56.6868 8.63787 55.9476 8.79337C55.8214 8.94675 55.7712 9.12379 55.7968 9.32435C55.3946 9.32435 54.9926 9.32435 54.5904 9.32435C54.5904 9.12212 54.5904 8.91974 54.5904 8.71752C54.1882 8.71752 53.7861 8.71752 53.384 8.71752C53.384 8.91974 53.384 9.12212 53.384 9.32435C52.9818 9.32435 52.5797 9.32435 52.1775 9.32435C52.1775 9.12212 52.1775 8.91974 52.1775 8.71752C50.9711 8.71752 49.7647 8.71752 48.5582 8.71752C48.5582 8.91974 48.5582 9.12212 48.5582 9.32435C48.2028 9.34908 47.851 9.32389 47.5026 9.24849C47.3342 8.96146 47.0828 8.83509 46.7486 8.86923C46.7486 9.02093 46.7486 9.17264 46.7486 9.32435C46.5476 9.32435 46.3464 9.32435 46.1454 9.32435C46.1454 9.17264 46.1454 9.02093 46.1454 8.86923C45.9444 8.86923 45.7432 8.86923 45.5422 8.86923C45.5422 9.02093 45.5422 9.17264 45.5422 9.32435C44.8123 9.38731 44.1085 9.28612 43.4309 9.02093C43.2299 9.12212 43.0287 9.22316 42.8277 9.32435C42.0203 9.06887 41.1909 8.91716 40.3395 8.86923C40.0971 8.91003 39.9211 9.03656 39.8117 9.24849C39.4511 9.29203 39.0993 9.36789 38.756 9.47606C37.9349 9.27944 37.0805 9.27944 36.1924 9.47606C36.293 9.37487 36.3934 9.27383 36.494 9.17264C37.1375 9.05795 37.7407 8.85572 38.3036 8.56581C38.7568 8.29623 39.2594 8.14452 39.8117 8.11069C40.8961 8.03787 41.9517 7.86082 42.9785 7.57971C43.0624 7.52161 43.1126 7.44575 43.1293 7.35215C43.9842 7.01217 44.8891 6.86046 45.8438 6.89702C48.3999 6.64443 50.9636 6.54324 53.5348 6.59361Z" fill="#FD6055"/>
<path fill-rule="evenodd" clip-rule="evenodd" d="M53.5352 6.59375C55.0464 6.66991 56.5544 6.79643 58.0593 6.97302C58.2942 7.00488 58.4952 7.08073 58.6625 7.20058C56.921 7.09423 55.2119 6.89201 53.5352 6.59375Z" fill="#E37C71"/>
<path fill-rule="evenodd" clip-rule="evenodd" d="M58.6621 7.2002C60.2689 7.52834 61.8775 7.85709 63.4878 8.1863C64.1418 8.32359 64.7451 8.55115 65.2975 8.86898C65.1466 8.86898 64.9958 8.86898 64.845 8.86898C62.9019 8.20298 60.8911 7.72252 58.8129 7.42776C58.7291 7.36965 58.6788 7.2938 58.6621 7.2002Z" fill="#EB6F67"/>
<path fill-rule="evenodd" clip-rule="evenodd" d="M43.1302 7.35254C43.1134 7.44614 43.0632 7.522 42.9794 7.5801C41.9525 7.86121 40.8969 8.03826 39.8125 8.11108C40.8701 7.71906 41.9759 7.46617 43.1302 7.35254Z" fill="#E97268"/>
<path fill-rule="evenodd" clip-rule="evenodd" d="M64.8458 8.86903C64.9966 8.86903 65.1474 8.86903 65.2982 8.86903C68.6333 9.99774 71.8505 11.439 74.9497 13.1927C75.6669 13.6022 76.3203 14.0826 76.9101 14.6339C76.2322 14.5365 75.6792 14.2079 75.2513 13.6478C74.986 13.5268 74.7346 13.5521 74.4972 13.7237C74.6723 13.9852 74.6473 14.238 74.4218 14.4822C74.2827 14.2912 74.1569 14.089 74.0448 13.8754C73.8413 14.0954 73.59 14.1966 73.2908 14.1788C73.2908 13.9259 73.2908 13.6732 73.2908 13.4203C72.8515 13.5325 72.4242 13.6842 72.009 13.8754C71.6335 13.7486 71.2565 13.6475 70.878 13.572C70.878 13.7742 70.878 13.9766 70.878 14.1788C69.7501 14.1002 68.6443 14.2013 67.5603 14.4822C66.0719 14.1947 64.5638 14.0935 63.0362 14.1788C63.0362 13.7742 63.0362 13.3697 63.0362 12.9651C64.2426 12.9651 65.4491 12.9651 66.6555 12.9651C66.6555 12.3583 66.6555 11.7515 66.6555 11.1446C65.6501 11.1446 64.6448 11.1446 63.6394 11.1446C63.6394 10.9929 63.6394 10.8412 63.6394 10.6895C62.632 10.6725 61.6266 10.6219 60.6233 10.5378C60.6233 10.74 60.6233 10.9424 60.6233 11.1446C58.2033 11.0843 55.7904 11.1855 53.3848 11.4481C52.1856 11.2466 50.9792 11.1456 49.7655 11.1446C49.7655 10.9929 49.7655 10.8412 49.7655 10.6895C48.5591 10.6895 47.3527 10.6895 46.1462 10.6895C46.1462 10.8412 46.1462 10.9929 46.1462 11.1446C45.7175 11.2079 45.3153 11.3596 44.9398 11.5998C42.5291 11.7513 40.1162 11.802 37.7013 11.7515C37.7013 11.5493 37.7013 11.3469 37.7013 11.1446C37.2991 11.1446 36.897 11.1446 36.4948 11.1446C36.4948 11.3469 36.4948 11.5493 36.4948 11.7515C36.0926 11.7515 35.6906 11.7515 35.2884 11.7515C35.2884 11.5998 35.2884 11.4481 35.2884 11.2964C35.0874 11.2964 34.8862 11.2964 34.6852 11.2964C34.6852 11.4481 34.6852 11.5998 34.6852 11.7515C33.9553 11.8144 33.2515 11.7132 32.5739 11.4481C31.9373 11.6862 31.2838 11.8631 30.6135 11.979C30.5192 12.4038 30.4187 12.8338 30.3119 13.2686C29.8519 13.1932 29.7011 12.9656 29.8595 12.5859C29.6131 12.5109 29.3617 12.4857 29.1055 12.51C29.6331 12.1687 30.186 11.8653 30.7643 11.5998C32.5761 10.8904 34.3857 10.1825 36.1932 9.47586C37.0813 9.27925 37.9358 9.27925 38.7569 9.47586C39.1001 9.36769 39.4519 9.29184 39.8125 9.2483C39.922 9.03637 40.098 8.90984 40.3403 8.86903C41.1917 8.91697 42.0212 9.06868 42.8286 9.32415C43.0296 9.22297 43.2308 9.12193 43.4318 9.02074C44.1093 9.28592 44.8131 9.38711 45.543 9.32415C45.543 9.17245 45.543 9.02074 45.543 8.86903C45.744 8.86903 45.9452 8.86903 46.1462 8.86903C46.1462 9.02074 46.1462 9.17245 46.1462 9.32415C46.3473 9.32415 46.5484 9.32415 46.7494 9.32415C46.7494 9.17245 46.7494 9.02074 46.7494 8.86903C47.0836 8.8349 47.335 8.96127 47.5035 9.2483C47.8518 9.3237 48.2036 9.34888 48.5591 9.32415C48.5591 9.12193 48.5591 8.91955 48.5591 8.71732C49.7655 8.71732 50.9719 8.71732 52.1784 8.71732C52.1784 8.91955 52.1784 9.12193 52.1784 9.32415C52.5806 9.32415 52.9826 9.32415 53.3848 9.32415C53.3848 9.12193 53.3848 8.91955 53.3848 8.71732C53.787 8.71732 54.189 8.71732 54.5912 8.71732C54.5912 8.91955 54.5912 9.12193 54.5912 9.32415C54.9934 9.32415 55.3955 9.32415 55.7976 9.32415C55.772 9.1236 55.8222 8.94655 55.9484 8.79318C56.6877 8.63768 57.3915 8.71353 58.0597 9.02074C58.2607 8.61613 58.4619 8.61613 58.6629 9.02074C58.98 8.63373 59.3067 8.63373 59.6431 9.02074C59.9015 8.80016 60.0774 8.52192 60.1709 8.18635C60.4174 8.1114 60.6687 8.08622 60.925 8.11049C60.925 8.31272 60.925 8.5151 60.925 8.71732C61.2266 8.71732 61.5282 8.71732 61.8298 8.71732C61.8041 8.91788 61.8544 9.09492 61.9806 9.2483C62.4235 9.26347 62.8257 9.38984 63.187 9.62757C63.4616 9.44127 63.6124 9.18853 63.6394 8.86903C64.0416 8.86903 64.4436 8.86903 64.8458 8.86903Z" fill="#FD5953"/>
<path fill-rule="evenodd" clip-rule="evenodd" d="M38.3038 8.56543C37.7408 8.85534 37.1376 9.05757 36.4941 9.17226C37.0348 8.82242 37.638 8.6202 38.3038 8.56543Z" fill="#E47E75"/>
<path fill-rule="evenodd" clip-rule="evenodd" d="M76.9098 14.6342C77.3885 14.7116 77.7404 14.9645 77.9654 15.3927C77.2108 15.3354 76.5072 15.133 75.8542 14.7859C75.3792 14.8567 74.9268 15.0085 74.497 15.241C73.093 15.3924 71.6855 15.4431 70.2745 15.3927C70.2745 15.7973 70.2745 16.2018 70.2745 16.6064C69.8723 16.6064 69.4702 16.6064 69.0681 16.6064C69.0681 16.2018 69.0681 15.7973 69.0681 15.3927C66.6552 15.3927 64.2424 15.3927 61.8295 15.3927C61.8295 15.1905 61.8295 14.9881 61.8295 14.7859C61.0253 14.7859 60.2209 14.7859 59.4166 14.7859C59.4166 14.9881 59.4166 15.1905 59.4166 15.3927C58.6124 15.3927 57.808 15.3927 57.0038 15.3927C57.0038 15.1905 57.0038 14.9881 57.0038 14.7859C56.4006 14.7859 55.7974 14.7859 55.1942 14.7859C55.1942 14.5837 55.1942 14.3813 55.1942 14.1791C51.7759 14.1791 48.3578 14.1791 44.9395 14.1791C44.9395 14.3813 44.9395 14.5837 44.9395 14.7859C44.5373 14.7859 44.1353 14.7859 43.7331 14.7859C43.7331 14.9881 43.7331 15.1905 43.7331 15.3927C43.3309 15.3927 42.9289 15.3927 42.5267 15.3927C42.5267 15.595 42.5267 15.7973 42.5267 15.9996C40.9181 15.9996 39.3096 15.9996 37.701 15.9996C37.701 15.7973 37.701 15.595 37.701 15.3927C35.2881 15.3927 32.8753 15.3927 30.4624 15.3927C30.4624 15.0893 30.4624 14.7859 30.4624 14.4825C29.5682 14.3948 28.6885 14.2431 27.8234 14.0274C27.5465 14.2748 27.6219 14.376 28.0496 14.3308C28.0496 14.5837 28.0496 14.8364 28.0496 15.0893C27.7323 15.1347 27.4307 15.0842 27.1448 14.9376C27.3717 14.734 27.4723 14.4813 27.4464 14.1791C27.1984 14.1466 26.9722 14.1973 26.7677 14.3308C26.7971 14.5775 26.7971 14.8304 26.7677 15.0893C26.7122 14.8754 26.5866 14.7237 26.3907 14.6342C26.1538 14.7569 25.9024 14.8076 25.6367 14.7859C26.67 13.8494 27.8261 13.0909 29.1052 12.5103C29.3614 12.486 29.6128 12.5112 29.8592 12.5861C29.7009 12.9659 29.8517 13.1934 30.3116 13.2688C30.4184 12.834 30.519 12.4041 30.6132 11.9793C31.2835 11.8634 31.937 11.6865 32.5737 11.4483C33.2512 11.7135 33.955 11.8147 34.6849 11.7517C34.6849 11.6 34.6849 11.4483 34.6849 11.2966C34.8859 11.2966 35.0871 11.2966 35.2881 11.2966C35.2881 11.4483 35.2881 11.6 35.2881 11.7517C35.6903 11.7517 36.0924 11.7517 36.4946 11.7517C36.4946 11.5495 36.4946 11.3471 36.4946 11.1449C36.8967 11.1449 37.2988 11.1449 37.701 11.1449C37.701 11.3471 37.701 11.5495 37.701 11.7517C40.1159 11.8023 42.5288 11.7516 44.9395 11.6C45.315 11.3599 45.7172 11.2082 46.146 11.1449C46.146 10.9932 46.146 10.8415 46.146 10.6898C47.3524 10.6898 48.5588 10.6898 49.7652 10.6898C49.7652 10.8415 49.7652 10.9932 49.7652 11.1449C50.9789 11.1458 52.1853 11.2469 53.3845 11.4483C55.7901 11.1857 58.203 11.0845 60.6231 11.1449C60.6231 10.9427 60.6231 10.7403 60.6231 10.5381C61.6264 10.6221 62.6318 10.6728 63.6391 10.6898C63.6391 10.8415 63.6391 10.9932 63.6391 11.1449C64.6445 11.1449 65.6498 11.1449 66.6552 11.1449C66.6552 11.7517 66.6552 12.3586 66.6552 12.9654C65.4488 12.9654 64.2424 12.9654 63.0359 12.9654C63.0359 13.37 63.0359 13.7745 63.0359 14.1791C64.5636 14.0938 66.0716 14.195 67.56 14.4825C68.644 14.2015 69.7498 14.1005 70.8777 14.1791C70.8777 13.9768 70.8777 13.7745 70.8777 13.5722C71.2562 13.6478 71.6332 13.7488 72.0087 13.8757C72.4239 13.6845 72.8513 13.5328 73.2905 13.4205C73.2905 13.6734 73.2905 13.9262 73.2905 14.1791C73.5897 14.1968 73.841 14.0956 74.0446 13.8757C74.1566 14.0893 74.2824 14.2915 74.4216 14.4825C74.647 14.2382 74.6721 13.9855 74.497 13.7239C74.7343 13.5524 74.9857 13.527 75.251 13.6481C75.679 14.2082 76.232 14.5368 76.9098 14.6342Z" fill="#FE5452"/>
<path fill-rule="evenodd" clip-rule="evenodd" d="M36.4942 9.17285C36.3936 9.27404 36.2932 9.37508 36.1926 9.47627C34.3851 10.1829 32.5754 10.8908 30.7637 11.6002C32.5634 10.5437 34.4736 9.73463 36.4942 9.17285Z" fill="#E76F67"/>
<path fill-rule="evenodd" clip-rule="evenodd" d="M77.9652 15.3927C79.3603 16.3406 80.6673 17.4025 81.8861 18.5786C81.3334 18.2735 81.0318 18.4252 80.9813 19.0337C78.6187 19.0337 76.2562 19.0337 73.8935 19.0337C73.8935 19.2359 73.8935 19.4383 73.8935 19.6405C73.3282 19.729 72.7752 19.729 72.2347 19.6405C71.9038 19.7094 71.6274 19.8611 71.4053 20.0957C71.1664 20.0216 70.9904 19.8699 70.8775 19.6405C70.7859 19.6593 70.7357 19.7099 70.7267 19.7922C70.2117 19.5236 69.6587 19.3719 69.0678 19.3371C68.8668 19.2866 68.6656 19.2359 68.4646 19.1854C65.2457 17.6488 61.9281 17.4212 58.5116 18.5027C57.8022 18.8586 57.1488 19.2886 56.5512 19.7922C56.5768 19.5917 56.5266 19.4146 56.4004 19.2613C56.6943 18.9829 57.0462 18.806 57.456 18.7303C57.4058 18.6798 57.3554 18.6291 57.3052 18.5786C56.4096 18.4334 55.5047 18.3829 54.5907 18.4269C54.5907 18.2246 54.5907 18.0223 54.5907 17.82C51.3736 17.6178 48.1564 17.6178 44.9393 17.82C44.9393 18.0223 44.9393 18.2246 44.9393 18.4269C44.0503 18.3428 43.1957 18.4439 42.3757 18.7303C42.2751 18.6291 42.1746 18.5281 42.0741 18.4269C41.7076 18.7124 41.3054 18.9146 40.8676 19.0337C40.8575 19.255 40.9077 19.4573 41.0184 19.6405C40.5903 19.3493 40.1379 19.0964 39.6612 18.882C39.4172 18.6065 39.1156 18.4043 38.7564 18.2752C38.568 18.027 38.3166 17.8499 38.0024 17.7442C36.4115 17.3865 34.8031 17.2853 33.1767 17.4408C31.8077 17.8527 30.5007 18.3331 29.2558 18.882C25.8214 19.9609 23.7605 22.2872 23.0728 25.8605C22.8718 26.0628 22.6707 26.2651 22.4696 26.4674C22.789 25.646 23.0906 24.8116 23.3744 23.9642C23.1252 23.5984 23.2256 23.4214 23.6761 23.4332C23.6761 23.2815 23.6761 23.1298 23.6761 22.9781C23.141 23.1605 22.588 23.2616 22.0172 23.2815C22.0172 23.1298 22.0172 22.9781 22.0172 22.8264C20.66 22.8264 19.3028 22.8264 17.9455 22.8264C17.8712 23.1762 17.821 23.5302 17.7947 23.8883C17.5382 23.8176 17.312 23.8176 17.1161 23.8883C17.0433 23.7445 17.0182 23.5928 17.0407 23.4332C16.8207 23.4231 16.6197 23.4736 16.4375 23.5849C16.834 22.9837 17.2864 22.4276 17.7947 21.9161C19.2136 20.4978 20.6212 19.0819 22.0172 17.6683C23.0578 16.4886 24.2642 15.5279 25.6365 14.7859C25.9022 14.8076 26.1536 14.7569 26.3905 14.6342C26.5864 14.7237 26.712 14.8754 26.7675 15.0893C26.7969 14.8303 26.7969 14.5774 26.7675 14.3308C26.972 14.1973 27.1982 14.1466 27.4461 14.1791C27.4721 14.4813 27.3715 14.734 27.1445 14.9376C27.4305 15.0841 27.7321 15.1347 28.0493 15.0893C28.0493 14.8364 28.0493 14.5837 28.0493 14.3308C27.6217 14.376 27.5463 14.2748 27.8231 14.0273C28.6883 14.2431 29.5679 14.3948 30.4622 14.4825C30.4622 14.7859 30.4622 15.0893 30.4622 15.3927C32.8751 15.3927 35.2879 15.3927 37.7008 15.3927C37.7008 15.5949 37.7008 15.7973 37.7008 15.9995C39.3094 15.9995 40.9178 15.9995 42.5265 15.9995C42.5265 15.7973 42.5265 15.5949 42.5265 15.3927C42.9287 15.3927 43.3307 15.3927 43.7329 15.3927C43.7329 15.1905 43.7329 14.9881 43.7329 14.7859C44.1351 14.7859 44.5371 14.7859 44.9393 14.7859C44.9393 14.5837 44.9393 14.3813 44.9393 14.1791C48.3576 14.1791 51.7757 14.1791 55.1939 14.1791C55.1939 14.3813 55.1939 14.5837 55.1939 14.7859C55.7971 14.7859 56.4004 14.7859 57.0036 14.7859C57.0036 14.9881 57.0036 15.1905 57.0036 15.3927C57.8078 15.3927 58.6122 15.3927 59.4164 15.3927C59.4164 15.1905 59.4164 14.9881 59.4164 14.7859C60.2207 14.7859 61.025 14.7859 61.8293 14.7859C61.8293 14.9881 61.8293 15.1905 61.8293 15.3927C64.2421 15.3927 66.655 15.3927 69.0678 15.3927C69.0678 15.7973 69.0678 16.2018 69.0678 16.6064C69.47 16.6064 69.8721 16.6064 70.2743 16.6064C70.2743 16.2018 70.2743 15.7973 70.2743 15.3927C71.6853 15.4431 73.0928 15.3924 74.4967 15.241C74.9265 15.0084 75.3789 14.8567 75.854 14.7859C76.507 15.133 77.2106 15.3354 77.9652 15.3927Z" fill="#FC4D4D"/>
<path fill-rule="evenodd" clip-rule="evenodd" d="M38.7565 18.2752C36.1159 17.2153 33.5019 17.266 30.9147 18.4269C30.7322 18.4924 30.5814 18.5936 30.4623 18.7303C30.0495 18.7153 29.6473 18.7659 29.2559 18.882C30.5007 18.3331 31.8078 17.8527 33.1767 17.4408C34.8032 17.2853 36.4116 17.3865 38.0024 17.7442C38.3167 17.8499 38.5681 18.027 38.7565 18.2752Z" fill="#DE5251"/>
<path fill-rule="evenodd" clip-rule="evenodd" d="M39.6609 18.8823C40.1376 19.0966 40.59 19.3495 41.0181 19.6408C42.0738 20.8039 43.1796 21.9164 44.3358 22.9784C47.6689 26.5591 51.087 30.0737 54.5904 33.5221C54.7616 33.6357 54.9124 33.6105 55.0428 33.4462C56.1947 32.1353 57.3509 30.8204 58.5113 29.5018C57.3081 28.9484 56.4032 28.0886 55.7969 26.9228C55.5842 26.2556 55.358 25.5982 55.1182 24.9506C55.0131 24.0347 55.0383 23.1245 55.1936 22.2198C55.2131 21.9595 55.2633 21.7066 55.3444 21.4613C55.5093 21.1808 55.7103 20.9279 55.9477 20.7028C55.8207 21.1054 55.7453 21.51 55.7215 21.9164C55.7839 21.9858 55.8593 22.0364 55.9477 22.0681C56.2755 20.692 56.4263 20.692 56.4001 22.0681C56.6011 22.0681 56.8023 22.0681 57.0033 22.0681C57.0033 21.8659 57.0033 21.6635 57.0033 21.4613C57.7671 21.5039 58.5211 21.4534 59.2653 21.3096C59.3156 21.3854 59.3659 21.4613 59.4161 21.5372C59.1771 21.7327 58.9759 21.9603 58.8129 22.2198C58.6814 22.4556 58.6814 22.658 58.8129 22.8267C58.8129 23.2818 58.8129 23.7369 58.8129 24.192C58.7458 24.6267 58.8464 25.0059 59.1145 25.3298C59.8277 25.6002 60.5063 25.9289 61.1504 26.3159C61.2253 26.7174 61.2505 27.122 61.2258 27.5296C61.628 27.5296 62.03 27.5296 62.4322 27.5296C62.5328 27.9342 62.6332 28.3387 62.7338 28.7433C62.9348 28.7433 63.136 28.7433 63.337 28.7433C63.337 28.9455 63.337 29.1479 63.337 29.3501C63.8396 29.3501 64.3424 29.3501 64.8451 29.3501C64.8055 29.1259 64.8558 28.9236 64.9959 28.7433C65.1427 29.0835 65.1931 29.4375 65.1467 29.8052C64.8616 29.7744 64.6354 29.8755 64.468 30.1086C64.1971 29.8574 63.8703 29.7057 63.4878 29.6535C63.2364 29.9064 62.9852 30.1592 62.7338 30.4121C62.8659 30.526 63.0167 30.6018 63.1862 30.6396C63.136 30.6901 63.0856 30.7408 63.0354 30.7913C63.1736 30.8335 63.274 30.9093 63.337 31.0189C60.2747 33.6443 57.4094 36.4763 54.7412 39.5145C48.4253 33.0847 42.0413 26.6371 35.5892 20.1718C34.0592 19.0787 32.3501 18.5984 30.4619 18.7306C30.581 18.5939 30.7319 18.4927 30.9143 18.4271C31.0044 18.5241 31.13 18.5746 31.2913 18.5789C31.8662 18.4808 32.4444 18.405 33.0256 18.3513C33.5495 18.0225 34.1275 17.8456 34.7598 17.8203C35.9055 17.9071 37.0365 18.084 38.1529 18.3513C37.7799 18.564 37.7799 18.7915 38.1529 19.034C38.2865 18.9088 38.3367 18.7571 38.3037 18.5789C38.785 18.5644 39.2375 18.6655 39.6609 18.8823Z" fill="#220201"/>
<path fill-rule="evenodd" clip-rule="evenodd" d="M68.4646 19.1849C68.6547 19.4361 68.8557 19.6888 69.0678 19.9434C68.9391 20.2321 68.9391 20.5355 69.0678 20.8536C68.8667 20.8536 68.6656 20.8536 68.4646 20.8536C68.4646 21.0559 68.4646 21.2582 68.4646 21.4605C67.933 21.4172 67.4303 21.5183 66.9565 21.7639C66.4816 21.5204 65.979 21.3687 65.4485 21.3088C64.9065 21.3971 64.8563 21.5993 65.2977 21.9156C63.7156 21.497 62.107 21.3707 60.472 21.5363C59.7579 21.7763 59.2049 22.2061 58.8131 22.8258C58.6816 22.6571 58.6816 22.4548 58.8131 22.219C58.9762 21.9594 59.1773 21.7319 59.4164 21.5363C59.3661 21.4605 59.3158 21.3846 59.2656 21.3088C58.5213 21.4526 57.7673 21.5031 57.0035 21.4605C57.0035 21.6627 57.0035 21.8651 57.0035 22.0673C56.8025 22.0673 56.6013 22.0673 56.4003 22.0673C56.4265 20.6912 56.2757 20.6912 55.9479 22.0673C55.8595 22.0356 55.7841 21.9849 55.7217 21.9156C55.7455 21.5092 55.8209 21.1046 55.9479 20.7019C56.0898 20.3573 56.2908 20.0538 56.5511 19.7917C57.1487 19.288 57.8022 18.8581 58.5115 18.5022C61.928 17.4206 65.2457 17.6482 68.4646 19.1849Z" fill="#1F0202"/>
<path fill-rule="evenodd" clip-rule="evenodd" d="M38.7568 18.2752C39.116 18.4043 39.4176 18.6066 39.6616 18.8821C39.2382 18.6653 38.7858 18.5642 38.3044 18.5787C38.3374 18.7569 38.2872 18.9086 38.1536 19.0338C37.7807 18.7913 37.7807 18.5638 38.1536 18.3511C37.0372 18.0838 35.9062 17.9069 34.7605 17.8201C34.1282 17.8455 33.5502 18.0223 33.0263 18.3511C32.4451 18.4048 31.8669 18.4807 31.292 18.5787C31.1307 18.5744 31.0051 18.5239 30.915 18.4269C33.5022 17.2661 36.1162 17.2154 38.7568 18.2752Z" fill="#340403"/>
<path fill-rule="evenodd" clip-rule="evenodd" d="M22.0174 17.668C20.6214 19.0816 19.2138 20.4975 17.7949 21.9158C18.3853 21.1184 19.0387 20.3599 19.7554 19.6402C20.4708 18.9193 21.2248 18.2619 22.0174 17.668Z" fill="#E25C5C"/>
<path fill-rule="evenodd" clip-rule="evenodd" d="M30.4619 18.7304C32.3501 18.5982 34.0591 19.0785 35.5892 20.1716C42.0413 26.6369 48.4252 33.0845 54.7412 39.5143C57.4093 36.4761 60.2746 33.6441 63.337 31.0187C63.9287 30.6203 64.5821 30.3927 65.2974 30.336C66.6215 30.2227 67.9283 30.2732 69.2183 30.4877C69.7349 29.7522 70.2878 29.0442 70.8771 28.3638C71.6165 27.7946 72.3705 27.2636 73.1392 26.7709C73.6867 26.6325 74.2396 26.6072 74.798 26.695C75.1375 26.8085 75.3385 27.0361 75.4012 27.3777C75.1301 29.7516 74.0493 31.6733 72.159 33.1426C72.1207 33.7459 72.2463 34.3023 72.536 34.8114C72.8806 37.2414 72.2523 39.3653 70.6509 41.1831C68.2317 43.642 65.8439 46.1198 63.4878 48.6168C70.2217 55.2646 76.8821 61.9904 83.4692 68.7939C84.6866 71.056 84.938 73.4328 84.2232 75.9242C82.4737 79.8513 79.4827 81.3935 75.2504 80.5513C74.1946 80.2982 73.2396 79.8431 72.3852 79.1859C65.5257 72.2348 58.614 65.3321 51.6497 58.4778C45.2531 63.2003 38.8942 67.9791 32.5731 72.8142C35.2122 75.469 37.8512 78.1239 40.4903 80.7788C41.3384 81.6355 41.7154 82.6721 41.6213 83.8888C41.4307 87.5272 39.5206 89.196 35.8908 88.8952C35.364 88.7523 34.8614 88.55 34.3827 88.2883C31.2896 85.3208 28.2484 82.3118 25.2591 79.2617C23.9176 80.2026 22.5352 81.0875 21.1121 81.9166C19.1661 82.79 18.4875 82.2085 19.0762 80.172C20.2192 78.4911 21.501 76.9235 22.9217 75.469C26.5545 71.3505 30.224 67.2544 33.9303 63.1807C38.4098 58.2702 42.8333 53.3144 47.201 48.3134C48.5575 47.0751 49.8393 45.7604 51.0465 44.369C51.5147 43.223 51.1377 42.6415 49.9155 42.6243C48.7439 43.3239 47.6379 44.1077 46.5978 44.9758C45.0331 45.9158 43.525 46.9524 42.0737 48.0858C41.8409 48.2659 41.5895 48.3164 41.3197 48.2375C35.6902 42.4735 30.0853 36.7338 24.5051 31.0187C23.4644 29.4608 22.9868 27.7415 23.0725 25.8606C23.7602 22.2873 25.821 19.961 29.2554 18.8821C29.6469 18.766 30.0491 18.7153 30.4619 18.7304Z" fill="#FEFDFD"/>
<path fill-rule="evenodd" clip-rule="evenodd" d="M56.551 19.7918C56.2907 20.054 56.0897 20.3574 55.9478 20.7021C55.7104 20.9272 55.5094 21.1801 55.3446 21.4606C54.881 21.8912 54.68 22.4475 54.7414 23.1294C54.6307 23.3385 54.5301 23.566 54.4398 23.8121C53.2848 23.8879 52.1286 23.9131 50.9713 23.8879C50.9713 23.0789 50.9713 22.2697 50.9713 21.4606C49.7649 21.4606 48.5584 21.4606 47.352 21.4606C47.352 21.2584 47.352 21.056 47.352 20.8538C46.5478 20.8538 45.7434 20.8538 44.9392 20.8538C44.9568 21.1548 44.8562 21.4075 44.6376 21.6123C45.0031 21.9482 44.9025 22.0999 44.336 22.0675C44.4043 21.5893 44.2535 21.21 43.8835 20.9296C44.0265 20.8564 44.1773 20.8312 44.336 20.8538C44.336 20.7021 44.336 20.5504 44.336 20.3987C44.543 20.4225 44.7442 20.3972 44.9392 20.3228C44.4427 20.1808 43.9903 20.2567 43.5819 20.5504C43.4642 20.3639 43.3888 20.1617 43.3557 19.9435C43.2925 20.1213 43.1921 20.2731 43.0541 20.3987C42.3072 20.3086 41.6286 20.0558 41.0183 19.6401C40.9076 19.4569 40.8574 19.2546 40.8675 19.0333C41.3053 18.9142 41.7075 18.712 42.0739 18.4265C42.1745 18.5277 42.2749 18.6287 42.3755 18.7299C43.1956 18.4435 44.0502 18.3424 44.9392 18.4265C44.9392 18.2242 44.9392 18.0219 44.9392 17.8196C48.1563 17.6174 51.3735 17.6174 54.5906 17.8196C54.5906 18.0219 54.5906 18.2242 54.5906 18.4265C55.5046 18.3825 56.4094 18.433 57.305 18.5782C57.3553 18.6287 57.4056 18.6794 57.4558 18.7299C57.0461 18.8056 56.6941 18.9825 56.4002 19.2609C56.5264 19.4142 56.5767 19.5913 56.551 19.7918Z" fill="#FB4347"/>
<path fill-rule="evenodd" clip-rule="evenodd" d="M68.4651 19.1855C68.6662 19.2361 68.8673 19.2867 69.0683 19.3373C70.8327 20.2278 72.3911 21.4161 73.7432 22.9024C74.8373 22.8912 75.8929 23.0681 76.9101 23.4334C77.8187 23.8926 78.4721 24.6006 78.8706 25.5573C78.8457 26.1159 78.8707 26.672 78.946 27.2261C78.9535 27.5665 79.0791 27.8194 79.323 27.9846C81.2585 29.2738 82.7666 30.9426 83.8471 32.9909C83.8947 33.4091 84.0455 33.7883 84.2995 34.1288C84.264 34.2612 84.2137 34.3877 84.1487 34.508C84.3612 34.5569 84.5874 34.7086 84.8273 34.9632C84.9929 35.9854 85.3197 36.9463 85.8075 37.8456C86.0542 39.61 85.9788 41.3799 85.5813 43.1554C85.2304 43.5697 84.954 44.0248 84.7519 44.5207C84.6011 44.5713 84.5005 44.6724 84.4503 44.8242C83.9663 44.9451 83.8909 45.1978 84.2241 45.5827C88.2095 45.4066 92.2058 45.3812 96.2129 45.5068C96.3103 46.3564 96.4109 47.1908 96.5145 48.01C96.5145 48.0605 96.5145 48.1112 96.5145 48.1617C91.8393 48.1364 87.1644 48.1617 82.4898 48.2376C81.5962 48.5041 81.0433 49.0858 80.831 49.9822C79.3622 50.2759 77.8541 50.377 76.3069 50.2856C76.1296 49.247 75.5263 48.5895 74.4973 48.3134C73.3175 48.1381 72.1111 48.1127 70.878 48.2376C70.6955 48.3952 70.5447 48.5722 70.4256 48.7686C70.1582 48.892 70.0828 49.0944 70.1994 49.3754C70.7077 49.8613 71.1853 50.3669 71.632 50.8925C73.8093 53.007 75.9709 55.1561 78.1165 57.34C78.2061 57.4104 78.3067 57.4358 78.4181 57.4159C78.4684 57.5676 78.5689 57.6688 78.7197 57.7193C86.4594 58.0221 94.2508 58.1232 102.094 58.0227C102.119 58.3803 102.094 58.7342 102.019 59.0847C101.798 59.2302 101.672 59.4324 101.642 59.6915C101.777 60.4434 101.827 61.2019 101.793 61.9671C97.017 61.9418 92.2415 61.9671 87.4663 62.043C85.8531 62.8596 85.5264 64.0481 86.4861 65.6081C86.7754 65.7662 87.0518 65.9431 87.3155 66.1391C91.7891 66.2149 96.2628 66.2403 100.737 66.2149C100.078 68.5532 99.2481 70.8288 98.2488 73.0418C97.3335 74.6294 96.4539 76.2477 95.6097 77.8964C95.1332 78.4499 94.731 79.0567 94.4033 79.7169C93.2542 81.2779 92.0477 82.7949 90.784 84.2682C89.975 85.0819 89.2209 85.9417 88.522 86.8472C87.2644 87.9607 86.0078 89.0732 84.7519 90.1848C83.3711 91.2432 81.9635 92.28 80.5294 93.2948C78.9264 94.2769 77.3177 95.2124 75.7037 96.1014C73.7552 97.006 71.7947 97.8657 69.8224 98.6804C68.5051 99.0968 67.1982 99.5266 65.9015 99.9699C64.3128 100.301 62.7545 100.681 61.2266 101.108C60.925 101.108 60.6234 101.108 60.3218 101.108C59.0181 101.255 57.711 101.382 56.4009 101.487C56.2627 101.529 56.1623 101.605 56.0993 101.715C55.9987 101.715 55.8982 101.715 55.7977 101.715C52.6807 101.74 49.5641 101.715 46.4479 101.639C45.4428 101.505 44.4625 101.278 43.5072 100.956C43.3216 101.048 43.1205 101.099 42.904 101.108C42.192 100.889 41.4632 100.787 40.7173 100.804C39.1101 100.451 37.5015 100.097 35.8916 99.7423C34.7214 99.3579 33.5652 98.9028 32.4232 98.377C31.4953 97.6324 30.4396 97.1773 29.2563 97.0116C29.2026 96.8038 29.0768 96.6521 28.8793 96.5565C27.9087 96.0819 26.9789 95.551 26.0894 94.9636C25.843 94.8886 25.5916 94.8634 25.3354 94.8877C25.0664 94.8281 24.8151 94.727 24.5814 94.5843C21.7406 92.8748 19.0763 90.9026 16.5888 88.6677C16.0428 88.0407 15.4395 87.4844 14.7792 86.9989C13.8285 85.8402 12.8233 84.7275 11.7631 83.6613C10.9672 82.4144 10.0623 81.2513 9.04865 80.1721C7.94613 78.4274 6.86532 76.6576 5.80638 74.8623C5.28264 73.6063 4.67943 72.3926 3.99674 71.2213C3.77853 70.1809 3.40152 69.2201 2.86572 68.3388C2.7965 67.8265 2.69591 67.3207 2.56411 66.8218C4.06475 66.5466 5.62315 66.4202 7.23901 66.4425C7.57847 66.329 7.77949 66.1015 7.84222 65.7598C8.65113 64.8617 8.80194 63.8504 8.29463 62.7257C8.2037 62.2296 7.90209 61.9262 7.38981 61.8154C5.38157 61.6639 3.37091 61.6132 1.35768 61.6637C1.17159 60.4692 1.02079 59.2555 0.905273 58.0227C4.77624 58.0481 8.64676 58.0227 12.5171 57.9469C13.0006 57.8977 13.3524 57.6702 13.5727 57.2642C14.768 55.9483 16.276 55.3163 18.0968 55.3678C18.5001 55.2662 18.8519 55.0892 19.1525 54.8369C19.664 54.4442 20.0158 53.9386 20.2081 53.3198C20.3515 53.1045 20.4017 52.8518 20.3589 52.5612C23.8354 52.6307 27.3038 52.5549 30.7643 52.3337C31.6245 51.9697 32.0267 51.3122 31.9707 50.3615C31.9474 49.3241 31.4446 48.6162 30.4627 48.2376C22.5709 48.1617 14.6787 48.1364 6.7866 48.1617C6.7584 47.2952 6.80862 46.4354 6.9374 45.5827C14.8894 45.5621 22.8318 45.6126 30.7643 45.7344C31.2167 45.6332 31.6691 45.5322 32.1215 45.431C32.4236 45.1832 32.6246 44.8798 32.7248 44.5207C32.5091 44.5088 32.3079 44.5593 32.1215 44.6724C31.8555 44.4027 31.5539 44.2005 31.2167 44.0656C30.2537 43.1469 29.2987 42.2366 28.3515 41.3349C27.4512 40.2267 26.4961 39.1647 25.4862 38.149C25.084 37.7444 24.682 37.34 24.2798 36.9354C23.0931 35.7934 22.2889 34.4281 21.8669 32.8392C21.7452 30.9697 21.8457 29.0986 22.1685 27.2261C22.2691 26.9732 22.3696 26.7204 22.4701 26.4675C22.6712 26.2653 22.8723 26.0629 23.0734 25.8607C22.9877 27.7416 23.4653 29.4609 24.506 31.0187C30.0862 36.7339 35.6911 42.4736 41.3205 48.2376C41.5903 48.3165 41.8417 48.2659 42.0746 48.0859C43.5259 46.9525 45.0339 45.9158 46.5987 44.9759C46.8443 45.2125 47.0203 45.162 47.1265 44.8242C47.2382 44.9973 47.364 44.9973 47.5035 44.8242C47.6436 45.0045 47.6938 45.2068 47.6543 45.431C47.1367 45.3928 46.9859 45.595 47.2019 46.0378C47.7237 45.6044 48.1761 45.6549 48.5591 46.1895C48.2926 46.7646 47.8654 47.1693 47.2773 47.4032C47.2026 47.7025 47.1774 48.0059 47.2019 48.3134C42.8342 53.3145 38.4106 58.2703 33.9312 63.1808C33.3418 63.1913 32.9648 63.4947 32.8002 64.091C32.3726 64.2057 31.9956 64.4838 31.6691 64.9254C31.7194 64.9759 31.7697 65.0266 31.8199 65.0771C31.5346 65.2247 31.233 65.3259 30.9151 65.3806C31.1161 65.4311 31.3173 65.4817 31.5183 65.5323C31.0232 65.7691 30.5959 66.0977 30.2365 66.5184C30.1801 66.3794 30.1047 66.2529 30.0103 66.1391C29.3587 66.0634 28.7052 66.0381 28.0499 66.0632C28.0499 65.3552 28.0499 64.6473 28.0499 63.9393C27.8488 63.9393 27.6477 63.9393 27.4466 63.9393C27.4466 63.7371 27.4466 63.5347 27.4466 63.3325C27.2456 63.3325 27.0445 63.3325 26.8434 63.3325C26.8685 63.9918 26.8433 64.6492 26.768 65.3047C26.2968 64.8626 26.1209 64.9131 26.2402 65.4564C24.3098 63.3882 22.2991 61.3906 20.2081 59.4639C17.4123 58.1637 15.0749 58.7452 13.1957 61.2086C12.2128 63.096 12.3134 64.9165 13.4973 66.6701C14.0057 67.156 14.4833 67.6616 14.93 68.1871C14.9622 68.4366 14.9119 68.6641 14.7792 68.8698C15.1207 69.0394 15.4727 69.1658 15.8348 69.2491C15.8107 69.5068 15.8357 69.7597 15.9102 70.0076C16.609 70.7472 17.3882 71.4046 18.2476 71.9798C18.6949 72.3729 19.0719 72.828 19.3787 73.3452C19.3497 74.2497 19.4251 75.1599 19.6049 76.0759C19.9603 76.1007 20.3121 76.0755 20.6605 76.0001C20.7867 75.8467 20.8369 75.6697 20.8113 75.4691C21.0123 75.4691 21.2135 75.4691 21.4145 75.4691C21.4415 74.7321 21.7933 74.4792 22.4701 74.7106C22.6038 74.5854 22.654 74.4337 22.6209 74.2555C23.3744 74.1902 23.5001 74.3924 22.9979 74.8623C22.9241 75.0584 22.8989 75.2608 22.9225 75.4691C21.5018 76.9235 20.22 78.4911 19.0771 80.1721C18.4883 82.2086 19.1669 82.7901 21.1129 81.9167C22.536 81.0876 23.9185 80.2027 25.26 79.2618C28.2492 82.3119 31.2905 85.3209 34.3836 88.2884C34.8622 88.5501 35.3649 88.7523 35.8916 88.8952C39.5215 89.1961 41.4315 87.5273 41.6222 83.8889C41.7163 82.6722 41.3392 81.6356 40.4911 80.7789C37.8521 78.124 35.213 75.4691 32.574 72.8142C38.895 67.9791 45.2539 63.2004 51.6506 58.4778C58.6148 65.3322 65.5266 72.2349 72.386 79.186C73.2405 79.8432 74.1955 80.2983 75.2513 80.5513C79.4836 81.3936 82.4746 79.8513 84.2241 75.9242C84.9389 73.4329 84.6875 71.0561 83.4701 68.794C76.883 61.9905 70.2226 55.2647 63.4886 48.6168C65.8448 46.1199 68.2326 43.642 70.6518 41.1832C72.2532 39.3654 72.8814 37.2415 72.5368 34.8114C72.5187 34.4725 72.5689 34.1438 72.6876 33.8253C72.6486 33.634 72.548 33.4823 72.386 33.3702C72.8304 33.0419 73.3332 32.9154 73.8941 32.9909C73.6427 34.0529 74.0449 34.4575 75.1005 34.2046C75.1557 33.4509 75.2311 33.5016 75.3267 34.3563C75.3769 34.2551 75.4273 34.1541 75.4775 34.0529C75.5785 34.4586 75.7545 34.8125 76.0053 35.1149C76.463 36.7028 76.9908 38.2704 77.5887 39.8178C78.0152 41.0111 78.7442 41.9467 79.7754 42.6244C80.978 42.9316 81.7572 42.5018 82.1128 41.3349C82.341 39.522 82.0394 37.8025 81.208 36.1768C80.0732 34.2512 78.6406 32.5824 76.9101 31.1705C76.9312 30.9241 76.8306 30.7472 76.6085 30.6395C76.6587 30.589 76.7091 30.5383 76.7593 30.4878C76.4762 30.308 76.1746 30.1563 75.8545 30.0326C75.9975 29.9594 76.1483 29.9342 76.3069 29.9568C76.312 29.3302 76.4126 28.7234 76.6085 28.1363C76.3235 28.1055 76.0973 28.2065 75.9299 28.4397C75.8372 28.0145 75.6612 27.6605 75.4021 27.3778C75.3393 27.0361 75.1383 26.8086 74.7989 26.6951C74.2404 26.6072 73.6876 26.6326 73.14 26.7709C72.8448 26.709 72.5432 26.6585 72.2352 26.6192C72.4079 26.4082 72.4079 26.206 72.2352 26.0124C72.0844 26.2653 71.8834 26.4675 71.632 26.6192C71.3423 26.3205 71.3423 26.093 71.632 25.9365C71.2663 25.8921 70.9899 25.7152 70.8026 25.4056C70.7326 25.4957 70.7074 25.5969 70.7272 25.709C69.1646 24.0652 67.3549 22.801 65.2983 21.9163C64.8569 21.6 64.9071 21.3977 65.4491 21.3095C65.9796 21.3694 66.4822 21.5211 66.9571 21.7646C67.4309 21.519 67.9335 21.4179 68.4651 21.4612C68.4651 21.2589 68.4651 21.0566 68.4651 20.8543C68.6662 20.8543 68.8673 20.8543 69.0683 20.8543C68.9397 20.5362 68.9397 20.2328 69.0683 19.9441C68.8563 19.6895 68.6553 19.4368 68.4651 19.1855Z" fill="#220100"/>
<path fill-rule="evenodd" clip-rule="evenodd" d="M65.298 21.9165C67.3547 22.8013 69.1643 24.0655 70.7269 25.7092C70.807 26.0193 70.983 26.2722 71.2547 26.4678C71.3286 26.6639 71.3538 26.8663 71.3301 27.0746C67.6459 27.0631 64.0266 26.5828 60.4723 25.6334C59.7975 25.2823 59.2445 24.802 58.8135 24.1922C58.8135 23.737 58.8135 23.2819 58.8135 22.8268C59.2053 22.2071 59.7583 21.7773 60.4723 21.5373C62.1073 21.3716 63.7159 21.498 65.298 21.9165Z" fill="#FBFAFA"/>
<path fill-rule="evenodd" clip-rule="evenodd" d="M81.886 18.5786C82.552 19.0801 83.1803 19.6365 83.771 20.2474C84.4347 20.9897 85.0631 21.7482 85.6561 22.523C84.5866 22.6339 83.4807 22.6846 82.3384 22.6747C82.3384 22.8264 82.3384 22.9781 82.3384 23.1298C81.1346 23.2309 79.9281 23.2814 78.7191 23.2815C78.6664 23.6722 78.5658 23.9756 78.4175 24.1918C78.052 24.0518 77.7504 23.8242 77.5127 23.5091C77.3177 23.4348 77.1165 23.4094 76.9095 23.4332C76.7893 23.0362 76.5127 22.834 76.0801 22.8264C74.5117 23.093 73.3305 22.562 72.5362 21.2335C72.9091 21.0208 72.9091 20.7932 72.5362 20.5508C72.3495 20.8897 72.0983 20.9404 71.7822 20.7025C71.3915 20.4323 71.0395 20.1289 70.7266 19.7923C70.7356 19.7099 70.7858 19.6594 70.8774 19.6406C70.9903 19.8699 71.1663 20.0216 71.4052 20.0957C71.6273 19.8611 71.9037 19.7094 72.2346 19.6406C72.7751 19.729 73.3281 19.729 73.8934 19.6406C73.8934 19.4383 73.8934 19.236 73.8934 19.0337C76.2561 19.0337 78.6185 19.0337 80.9812 19.0337C81.0317 18.4252 81.3333 18.2735 81.886 18.5786Z" fill="#F9454A"/>
<path fill-rule="evenodd" clip-rule="evenodd" d="M55.3445 21.4609C55.2634 21.7062 55.2131 21.9591 55.1937 22.2195C55.0848 22.2829 55.0094 22.3839 54.9675 22.5229C54.8922 23.4318 54.8671 24.342 54.8921 25.2536C54.7434 24.5755 54.6932 23.8675 54.7413 23.1297C54.6799 22.4478 54.8809 21.8915 55.3445 21.4609Z" fill="#D14345"/>
<path fill-rule="evenodd" clip-rule="evenodd" d="M41.0186 19.6406C41.6289 20.0563 42.3075 20.309 43.0544 20.3992C43.1924 20.2735 43.2928 20.1218 43.356 19.944C43.389 20.1622 43.4644 20.3644 43.5822 20.5509C43.9906 20.2572 44.443 20.1813 44.9394 20.3233C44.7445 20.3976 44.5433 20.423 44.3362 20.3992C44.3362 20.5509 44.3362 20.7026 44.3362 20.8543C44.1776 20.8317 44.0268 20.8569 43.8838 20.9301C44.2537 21.2105 44.4045 21.5898 44.3362 22.0679C44.9028 22.1004 45.0034 21.9487 44.6378 21.6128C44.8565 21.408 44.9571 21.1553 44.9394 20.8543C45.7437 20.8543 46.5481 20.8543 47.3523 20.8543C47.3523 21.0565 47.3523 21.2589 47.3523 21.4611C48.5587 21.4611 49.7651 21.4611 50.9716 21.4611C50.9716 22.2702 50.9716 23.0794 50.9716 23.8884C52.1288 23.9136 53.285 23.8884 54.44 23.8126C54.5304 23.5665 54.631 23.339 54.7416 23.1299C54.6935 23.8677 54.7438 24.5757 54.8925 25.2538C55.0012 25.757 55.0264 26.2628 54.9679 26.7709C54.8673 26.5687 54.7668 26.3663 54.6662 26.1641C53.8509 26.3117 53.0214 26.3623 52.178 26.3158C52.178 26.4675 52.178 26.6192 52.178 26.7709C51.3201 26.9484 50.4655 26.9484 49.6143 26.7709C49.5138 26.9226 49.4133 27.0743 49.3127 27.226C48.9915 27.0793 48.6899 26.9023 48.4079 26.695C48.7742 26.2337 48.925 25.7027 48.8603 25.1021C48.4524 25.0839 48.3518 25.2356 48.5587 25.5572C48.3532 25.7686 48.2276 26.0213 48.1817 26.3158C48.0505 26.2235 47.9751 26.0972 47.9555 25.9365C48.0057 25.5317 48.0057 25.102 47.9555 24.647C47.6688 24.6571 47.3924 24.6065 47.1261 24.4953C47.0507 24.5458 46.9753 24.5965 46.8999 24.647C47.0726 24.858 47.0726 25.0602 46.8999 25.2538C46.6818 25.152 46.5814 24.975 46.5983 24.7228C46.7976 24.3147 46.7725 23.9355 46.5229 23.585C46.2888 23.8074 46.0123 23.9591 45.6935 24.0401C45.4505 23.9157 45.3499 23.7134 45.3918 23.4333C45.0091 23.3509 44.6571 23.1992 44.3362 22.9782C43.18 21.9162 42.0742 20.8038 41.0186 19.6406Z" fill="#F53D45"/>
<path fill-rule="evenodd" clip-rule="evenodd" d="M69.0684 19.3369C69.6592 19.3717 70.2122 19.5234 70.7272 19.792C71.0401 20.1287 71.3921 20.4321 71.7828 20.7023C72.0989 20.9402 72.3501 20.8895 72.5368 20.5506C72.9098 20.793 72.9098 21.0206 72.5368 21.2333C73.3311 22.5618 74.5124 23.0927 76.0807 22.8262C76.5134 22.8338 76.7899 23.036 76.9101 23.433C75.893 23.0677 74.8373 22.8908 73.7433 22.902C72.3912 21.4158 70.8328 20.2274 69.0684 19.3369Z" fill="#D9494B"/>
<path fill-rule="evenodd" clip-rule="evenodd" d="M85.6562 22.5234C86.8836 23.7577 87.9393 25.1231 88.8231 26.6195C88.5818 26.5055 88.3556 26.3538 88.1445 26.1644C88.0943 26.2149 88.0439 26.2656 87.9937 26.3161C87.95 25.9441 87.8495 25.5902 87.6921 25.2542C87.3973 25.1096 87.1459 24.9072 86.9381 24.6473C86.5973 23.8773 86.17 23.1693 85.6562 22.5234Z" fill="#E64D50"/>
<path fill-rule="evenodd" clip-rule="evenodd" d="M85.6558 22.5234C86.1696 23.1693 86.5968 23.8773 86.9376 24.6473C87.1454 24.9072 87.3968 25.1096 87.6916 25.2542C87.8491 25.5902 87.9495 25.9441 87.9932 26.3161C88.0434 26.2656 88.0938 26.2149 88.144 26.1644C88.3551 26.3538 88.5814 26.5055 88.8226 26.6195C91.3337 30.2052 93.2437 34.099 94.5532 38.301C94.2411 38.0292 94.04 37.6751 93.9499 37.2391C93.484 37.3407 93.2326 37.1637 93.1959 36.7081C93.2344 36.5069 93.335 36.3552 93.4975 36.253C93.3216 35.6715 93.1457 35.0898 92.9697 34.5083C92.5252 34.0655 92.1482 34.116 91.8387 34.6601C91.4869 34.4325 91.1349 34.2049 90.7831 33.9774C90.0558 33.9651 89.352 33.8386 88.6718 33.5981C87.7975 33.9444 86.8927 34.1468 85.9574 34.2049C85.8876 34.6229 85.6362 34.8758 85.2034 34.9635C85.17 34.6352 85.0192 34.3824 84.7509 34.2049C84.4493 33.8003 84.1477 33.3959 83.8461 32.9913C82.7656 30.9429 81.2576 29.2741 79.322 27.9849C79.4077 27.1115 79.2569 26.3025 78.8696 25.5576C78.4712 24.6009 77.8178 23.8929 76.9092 23.4337C77.1162 23.4099 77.3174 23.4352 77.5124 23.5095C77.7501 23.8246 78.0517 24.0522 78.4172 24.1922C78.5655 23.976 78.666 23.6726 78.7188 23.282C79.9278 23.2818 81.1342 23.2313 82.3381 23.1303C82.3381 22.9786 82.3381 22.8269 82.3381 22.6751C83.4804 22.685 84.5863 22.6343 85.6558 22.5234Z" fill="#EE3640"/>
<path fill-rule="evenodd" clip-rule="evenodd" d="M58.8131 24.1914C59.2441 24.8013 59.7971 25.2816 60.4719 25.6326C64.0262 26.582 67.6455 27.0623 71.3298 27.0739C71.3535 26.8656 71.3283 26.6632 71.2544 26.467C70.9826 26.2715 70.8066 26.0186 70.7266 25.7085C70.7068 25.5964 70.732 25.4952 70.802 25.4051C70.9893 25.7147 71.2657 25.8916 71.6314 25.936C71.3417 26.0925 71.3417 26.32 71.6314 26.6187C71.8828 26.467 72.0838 26.2648 72.2346 26.0119C72.4073 26.2055 72.4073 26.4077 72.2346 26.6187C72.5425 26.658 72.8441 26.7085 73.1394 26.7704C72.3708 27.2632 71.6168 27.7942 70.8774 28.3634C70.288 29.0438 69.7352 29.7518 69.2185 30.4873C67.9286 30.2728 66.6217 30.2222 65.2977 30.3356C64.5824 30.3923 63.929 30.6199 63.3372 31.0183C63.2742 30.9087 63.1737 30.8329 63.0356 30.7907C63.0858 30.7402 63.1362 30.6895 63.1864 30.639C63.0169 30.6012 62.8661 30.5254 62.734 30.4114C62.9854 30.1585 63.2366 29.9058 63.488 29.6529C63.8704 29.7051 64.1972 29.8568 64.4682 30.108C64.6356 29.8748 64.8618 29.7738 65.1468 29.8046C65.1933 29.4369 65.1429 29.0829 64.996 28.7426C64.8559 28.923 64.8057 29.1252 64.8452 29.3495C64.3426 29.3495 63.8398 29.3495 63.3372 29.3495C63.3372 29.1472 63.3372 28.9449 63.3372 28.7426C63.1362 28.7426 62.935 28.7426 62.734 28.7426C62.6334 28.338 62.533 27.9336 62.4324 27.529C62.0302 27.529 61.6282 27.529 61.226 27.529C61.2507 27.1213 61.2255 26.7167 61.1506 26.3153C60.5065 25.9283 59.8279 25.5996 59.1147 25.3292C58.8466 25.0053 58.746 24.626 58.8131 24.1914Z" fill="#1E0505"/>
<path fill-rule="evenodd" clip-rule="evenodd" d="M55.1938 22.2197C55.0385 23.1244 55.0133 24.0346 55.1184 24.9505C55.3582 25.5981 55.5844 26.2555 55.797 26.9227C55.3847 26.4237 55.0831 25.8675 54.8922 25.2539C54.8671 24.3423 54.8923 23.432 54.9676 22.5231C55.0095 22.3842 55.0849 22.2831 55.1938 22.2197Z" fill="#3F0406"/>
<path fill-rule="evenodd" clip-rule="evenodd" d="M44.3359 22.9785C44.6568 23.1996 45.0088 23.3513 45.3916 23.4336C45.3496 23.7137 45.4502 23.9161 45.6932 24.0405C46.012 23.9595 46.2885 23.8077 46.5226 23.5853C46.7722 23.9358 46.7973 24.3151 46.598 24.7232C46.5811 24.9753 46.6815 25.1523 46.8996 25.2541C47.0723 25.0606 47.0723 24.8583 46.8996 24.6473C46.975 24.5968 47.0504 24.5461 47.1258 24.4956C47.3921 24.6068 47.6685 24.6575 47.9552 24.6473C48.0054 25.1023 48.0054 25.5321 47.9552 25.9368C47.9748 26.0975 48.0502 26.2238 48.1814 26.3161C48.2273 26.0216 48.3529 25.7689 48.5584 25.5575C48.3515 25.2359 48.4521 25.0842 48.86 25.1024C48.9247 25.703 48.7739 26.234 48.4076 26.6954C48.6896 26.9026 48.9912 27.0796 49.3124 27.2263C49.413 27.0746 49.5135 26.9229 49.6141 26.7712C50.4652 26.9487 51.3198 26.9487 52.1777 26.7712C52.1777 26.6195 52.1777 26.4678 52.1777 26.3161C53.0211 26.3627 53.8506 26.312 54.666 26.1644C54.7665 26.3666 54.867 26.569 54.9676 26.7712C55.0261 26.2631 55.0009 25.7573 54.8922 25.2541C55.0831 25.8678 55.3847 26.4239 55.797 26.9229C56.4034 28.0888 57.3082 28.9485 58.5114 29.5019C57.351 30.8206 56.1948 32.1354 55.043 33.4463C54.9125 33.6106 54.7617 33.6358 54.5906 33.5222C51.0871 30.0739 47.669 26.5593 44.3359 22.9785Z" fill="#EB3642"/>
<path fill-rule="evenodd" clip-rule="evenodd" d="M22.4694 26.4672C22.3186 26.4672 22.1677 26.4672 22.0169 26.4672C21.4929 28.245 21.2415 30.0655 21.2629 31.9286C20.7255 31.7886 20.1725 31.7381 19.6041 31.7769C19.6041 31.3723 19.6041 30.9679 19.6041 30.5633C17.3835 30.6288 15.1717 30.5529 12.9688 30.3357C13.5092 29.7721 13.66 29.1148 13.4212 28.3635C13.6751 28.0231 13.8259 27.6438 13.8736 27.2257C14.5802 25.9042 15.4348 24.6905 16.4372 23.5847C16.6194 23.4734 16.8204 23.4228 17.0404 23.433C17.018 23.5926 17.043 23.7443 17.1158 23.8881C17.3117 23.8174 17.5379 23.8174 17.7945 23.8881C17.8207 23.5299 17.8709 23.176 17.9453 22.8262C19.3025 22.8262 20.6597 22.8262 22.0169 22.8262C22.0169 22.9779 22.0169 23.1296 22.0169 23.2813C22.5877 23.2614 23.1407 23.1602 23.6758 22.9779C23.6758 23.1296 23.6758 23.2813 23.6758 23.433C23.2253 23.4212 23.1249 23.5982 23.3742 23.964C23.0904 24.8114 22.7888 25.6458 22.4694 26.4672Z" fill="#F23641"/>
<path fill-rule="evenodd" clip-rule="evenodd" d="M78.8696 25.5566C79.2569 26.3015 79.4077 27.1106 79.3221 27.984C79.0782 27.8188 78.9526 27.5659 78.9451 27.2254C78.8698 26.6714 78.8448 26.1152 78.8696 25.5566Z" fill="#41080D"/>
<path fill-rule="evenodd" clip-rule="evenodd" d="M22.1677 27.2256C21.8448 29.0981 21.7444 30.9693 21.8661 32.8388C21.7572 32.7754 21.6818 32.6743 21.6399 32.5354C21.5393 31.3722 21.5393 30.2092 21.6399 29.0461C21.6951 28.3855 21.8711 27.7787 22.1677 27.2256Z" fill="#3A0101"/>
<path fill-rule="evenodd" clip-rule="evenodd" d="M13.8737 27.2256C13.8261 27.6437 13.6753 28.023 13.4213 28.3634C13.6602 29.1147 13.5094 29.772 12.9689 30.3356C15.1719 30.5528 17.3837 30.6287 19.6043 30.5632C19.6043 30.9678 19.6043 31.3722 19.6043 31.7768C20.1726 31.738 20.7256 31.7885 21.2631 31.9285C21.2385 32.2861 21.2636 32.64 21.3385 32.9905C21.3887 32.94 21.4391 32.8893 21.4893 32.8388C21.7395 33.5313 22.0161 34.214 22.3187 34.8868C22.2685 34.9627 22.2181 35.0385 22.1679 35.1144C20.7394 34.8204 19.2816 34.7192 17.7946 34.811C17.7946 35.0639 17.7946 35.3166 17.7946 35.5695C16.1813 35.6055 14.5727 35.5549 12.9689 35.4178C12.9689 35.2661 12.9689 35.1144 12.9689 34.9627C12.2 35.012 11.446 34.9361 10.7069 34.7351C10.6063 34.5834 10.5059 34.4317 10.4053 34.28C10.9094 33.6853 11.563 33.4577 12.3657 33.5973C12.3657 33.3951 12.3657 33.1927 12.3657 32.9905C12.0097 32.9641 11.6578 32.9136 11.3101 32.8388C11.3101 32.4342 11.3101 32.0297 11.3101 31.6251C12.051 30.0825 12.9056 28.6161 13.8737 27.2256Z" fill="#E92F3C"/>
<path fill-rule="evenodd" clip-rule="evenodd" d="M75.4013 27.3779C75.6604 27.6607 75.8364 28.0146 75.9291 28.4399C76.0965 28.2067 76.3227 28.1057 76.6078 28.1365C76.4119 28.7236 76.3113 29.3304 76.3061 29.957C76.1475 29.9344 75.9967 29.9595 75.8537 30.0328C76.1739 30.1565 76.4755 30.3082 76.7586 30.4879C76.7083 30.5385 76.658 30.5891 76.6078 30.6396C76.8299 30.7474 76.9305 30.9242 76.9094 31.1706C76.4437 30.8862 75.9409 30.6839 75.4013 30.5638C75.5367 32.0895 75.7379 33.6066 76.0045 35.115C75.7538 34.8127 75.5778 34.4587 75.4767 34.0531C75.4265 34.1543 75.3761 34.2553 75.3259 34.3565C75.2303 33.5018 75.1549 33.4511 75.0997 34.2048C74.0441 34.4577 73.6419 34.0531 73.8933 32.9911C73.3325 32.9156 72.8297 33.0421 72.3853 33.3704C72.5472 33.4825 72.6478 33.6342 72.6869 33.8255C72.5682 34.1439 72.518 34.4727 72.5361 34.8116C72.2464 34.3025 72.1208 33.7462 72.1591 33.1428C74.0494 31.6735 75.1302 29.7519 75.4013 27.3779Z" fill="#1E0707"/>
<path fill-rule="evenodd" clip-rule="evenodd" d="M76.9094 31.1703C78.6399 32.5823 80.0725 34.251 81.2073 36.1767C82.0387 37.8024 82.3403 39.5218 82.1121 41.3347C81.7565 42.5017 80.9773 42.9314 79.7747 42.6242C78.7435 41.9466 78.0145 41.011 77.588 39.8176C76.9901 38.2702 76.4623 36.7026 76.0046 35.1147C75.738 33.6063 75.5368 32.0892 75.4014 30.5635C75.9409 30.6836 76.4437 30.8859 76.9094 31.1703Z" fill="#FCFBFB"/>
<path fill-rule="evenodd" clip-rule="evenodd" d="M22.4699 26.4678C22.3693 26.7207 22.2689 26.9734 22.1683 27.2263C21.8717 27.7794 21.6957 28.3863 21.6405 29.0468C21.5399 30.2099 21.5399 31.3729 21.6405 32.5361C21.6824 32.675 21.7578 32.7761 21.8667 32.8395C22.2886 34.4283 23.0929 35.7937 24.2795 36.9356C23.6644 36.6461 23.1618 36.2162 22.7715 35.6461C22.4863 35.5992 22.2852 35.7257 22.1683 36.0254C22.0347 35.9002 21.9845 35.7485 22.0175 35.5702C20.1834 35.47 18.3738 35.6217 16.5886 36.0254C14.5473 35.8149 12.5115 35.6126 10.481 35.4185C10.2548 35.4439 10.0286 35.469 9.80243 35.4944C9.65344 35.8231 9.45242 36.1012 9.19922 36.3288C9.7872 34.692 10.4908 33.1244 11.3105 31.6258C11.3105 32.0304 11.3105 32.4349 11.3105 32.8395C11.6582 32.9143 12.01 32.9648 12.3661 32.9912C12.3661 33.1934 12.3661 33.3958 12.3661 33.598C11.5634 33.4585 10.9098 33.686 10.4056 34.2807C10.5062 34.4324 10.6067 34.5841 10.7073 34.7358C11.4463 34.9369 12.2004 35.0127 12.9693 34.9634C12.9693 35.1151 12.9693 35.2668 12.9693 35.4185C14.5731 35.5557 16.1817 35.6062 17.795 35.5702C17.795 35.3173 17.795 35.0646 17.795 34.8117C19.2819 34.7199 20.7397 34.8211 22.1683 35.1151C22.2185 35.0393 22.2689 34.9634 22.3191 34.8876C22.0164 34.2147 21.7399 33.532 21.4897 32.8395C21.4395 32.89 21.3891 32.9407 21.3389 32.9912C21.2639 32.6408 21.2389 32.2868 21.2635 31.9293C21.2421 30.0661 21.4935 28.2456 22.0175 26.4678C22.1683 26.4678 22.3191 26.4678 22.4699 26.4678Z" fill="#DE2F3B"/>
<path fill-rule="evenodd" clip-rule="evenodd" d="M83.8467 32.9912C84.1483 33.3958 84.4499 33.8003 84.7515 34.2049C85.1955 35.3833 85.5474 36.597 85.8071 37.8459C85.3193 36.9465 84.9925 35.9856 84.8269 34.9634C84.587 34.7088 84.3608 34.5571 84.1483 34.5083C84.2133 34.388 84.2637 34.2615 84.2991 34.129C84.0451 33.7886 83.8943 33.4093 83.8467 32.9912Z" fill="#41070B"/>
<path fill-rule="evenodd" clip-rule="evenodd" d="M94.5539 38.3006C94.4841 38.753 94.4339 39.2081 94.4031 39.666C93.1967 39.666 91.9902 39.666 90.7838 39.666C90.7838 39.4637 90.7838 39.2614 90.7838 39.0591C89.8968 39.0998 89.0172 39.0491 88.1448 38.9074C87.7866 38.9557 87.6106 39.1579 87.617 39.5143C87.1989 39.5287 86.8973 39.731 86.7121 40.1211C86.2722 39.1092 86.046 38.0472 86.0335 36.9352C85.6883 36.3012 85.4119 35.6439 85.2041 34.963C85.6369 34.8753 85.8883 34.6224 85.9581 34.2045C86.8934 34.1464 87.7982 33.944 88.6726 33.5977C89.3527 33.8381 90.0565 33.9646 90.7838 33.9769C91.1356 34.2045 91.4876 34.432 91.8394 34.6596C92.1489 34.1156 92.5259 34.0651 92.9705 34.5079C93.1465 35.0894 93.3223 35.671 93.4983 36.2525C93.3357 36.3548 93.2351 36.5065 93.1967 36.7077C93.2333 37.1632 93.4847 37.3403 93.9507 37.2386C94.0407 37.6746 94.2419 38.0287 94.5539 38.3006Z" fill="#E02434"/>
<path fill-rule="evenodd" clip-rule="evenodd" d="M24.2792 36.935C24.6814 37.3397 25.0835 37.7441 25.4857 38.1487C25.5719 38.415 25.6977 38.6679 25.8627 38.9072C26.371 39.3932 26.8486 39.8988 27.2953 40.4243C27.4362 40.6881 27.4362 40.9409 27.2953 41.1829C27.1852 40.9653 27.0344 40.7884 26.8429 40.6519C26.0504 40.4431 25.2462 40.3168 24.43 40.2726C24.43 40.0704 24.43 39.868 24.43 39.6658C24.0279 39.6658 23.6258 39.6658 23.2236 39.6658C23.2236 39.868 23.2236 40.0704 23.2236 40.2726C22.8214 40.2726 22.4194 40.2726 22.0172 40.2726C22.0172 40.0704 22.0172 39.868 22.0172 39.6658C17.9962 39.5826 13.9747 39.5068 9.95293 39.4382C9.4307 39.4205 8.97829 39.2434 8.5957 38.9072C8.80472 38.088 9.00574 37.2788 9.19892 36.4799C9.19892 36.4294 9.19892 36.3787 9.19892 36.3282C9.45211 36.1007 9.65314 35.8226 9.80213 35.4938C10.0283 35.4685 10.2545 35.4433 10.4807 35.418C12.5112 35.612 14.547 35.8144 16.5883 36.0248C18.3735 35.6211 20.1831 35.4694 22.0172 35.5697C21.9842 35.7479 22.0344 35.8996 22.168 36.0248C22.2849 35.7252 22.486 35.5987 22.7712 35.6455C23.1615 36.2156 23.6641 36.6456 24.2792 36.935Z" fill="#DE2234"/>
<path fill-rule="evenodd" clip-rule="evenodd" d="M25.4854 38.1484C26.4953 39.1641 27.4503 40.2261 28.3506 41.3343C27.9988 41.0309 27.6468 40.7275 27.295 40.4241C26.8483 39.8985 26.3707 39.3929 25.8624 38.907C25.6974 38.6676 25.5716 38.4147 25.4854 38.1484Z" fill="#AA2631"/>
<path fill-rule="evenodd" clip-rule="evenodd" d="M8.5954 38.9072C8.97799 39.2434 9.4304 39.4205 9.95263 39.4382C13.9744 39.5068 17.9959 39.5826 22.0169 39.6658C22.0169 39.868 22.0169 40.0704 22.0169 40.2726C22.4191 40.2726 22.8211 40.2726 23.2233 40.2726C23.2233 40.0704 23.2233 39.868 23.2233 39.6658C23.6255 39.6658 24.0275 39.6658 24.4297 39.6658C24.4297 39.868 24.4297 40.0704 24.4297 40.2726C25.2459 40.3167 26.0501 40.4431 26.8426 40.6519C27.0341 40.7884 27.1849 40.9653 27.295 41.1828C27.4359 40.9409 27.4359 40.6881 27.295 40.4243C27.6468 40.7277 27.9988 41.0311 28.3506 41.3345C29.2978 42.2363 30.2529 43.1465 31.2159 44.0653C31.2661 44.1665 31.3165 44.2675 31.3667 44.3687C31.3726 44.533 31.4229 44.6847 31.5175 44.8238C30.9735 44.9739 30.4206 45.0245 29.8587 44.9755C29.9258 44.5409 29.8252 44.1616 29.5571 43.8377C28.786 43.4416 27.9818 43.1382 27.1442 42.9275C25.01 42.7914 22.8736 42.7155 20.7351 42.6999C19.4787 42.7046 18.2473 42.8058 17.0404 43.0033C16.871 42.845 16.67 42.7439 16.4372 42.6999C15.084 42.8389 13.7268 42.8894 12.3655 42.8516C12.3655 43.0033 12.3655 43.155 12.3655 43.3068C11.9633 43.3068 11.5612 43.3068 11.1591 43.3068C11.1591 43.155 11.1591 43.0033 11.1591 42.8516C10.5558 42.6764 9.95263 42.6511 9.34942 42.7758C9.1484 42.6746 8.94722 42.5735 8.7462 42.4724C9.12743 42.3181 9.12743 42.141 8.7462 41.9414C8.5669 41.8004 8.36588 41.7499 8.14299 41.7897C8.17436 41.4225 8.12399 41.0686 7.99219 40.7277C8.20286 40.1101 8.40388 39.5033 8.5954 38.9072Z" fill="#D31A2E"/>
<path fill-rule="evenodd" clip-rule="evenodd" d="M47.2018 48.3131C47.1774 48.0056 47.2026 47.7021 47.2772 47.4028C47.8654 47.1689 48.2926 46.7643 48.5591 46.1892C48.176 45.6545 47.7236 45.604 47.2018 46.0374C46.9859 45.5946 47.1367 45.3924 47.6543 45.4306C47.6938 45.2064 47.6435 45.0042 47.5035 44.8238C47.364 44.9969 47.2382 44.9969 47.1264 44.8238C47.0203 45.1616 46.8443 45.2122 46.5986 44.9755C47.6387 44.1074 48.7447 43.3235 49.9163 42.624C51.1386 42.6412 51.5156 43.2227 51.0473 44.3687C49.8401 45.7601 48.5583 47.0748 47.2018 48.3131Z" fill="#1E0506"/>
<path fill-rule="evenodd" clip-rule="evenodd" d="M84.751 34.2041C85.0193 34.3816 85.1701 34.6343 85.2034 34.9626C85.4112 35.6435 85.6876 36.3009 86.0328 36.9348C86.0453 38.0469 86.2715 39.1088 86.7114 40.1207C86.8966 39.7307 87.1982 39.5283 87.6162 39.5139C87.6099 39.1575 87.7859 38.9553 88.144 38.907C89.0164 39.0487 89.8961 39.0994 90.7831 39.0587C90.7831 39.261 90.7831 39.4634 90.7831 39.6656C91.9895 39.6656 93.196 39.6656 94.4024 39.6656C94.4331 39.2077 94.4834 38.7526 94.5532 38.3002C94.7902 38.7121 94.9411 39.1672 95.0056 39.6656C95.2969 41.4641 95.6489 43.2339 96.0612 44.9753C92.2652 45.0256 88.4951 44.975 84.751 44.8236C84.751 44.7225 84.751 44.6214 84.751 44.5202C84.9531 44.0243 85.2295 43.5692 85.5804 43.1549C85.9779 41.3794 86.0533 39.6094 85.8066 37.8451C85.5469 36.5962 85.1949 35.3826 84.751 34.2041Z" fill="#D0192D"/>
<path fill-rule="evenodd" clip-rule="evenodd" d="M75.5521 44.824C75.2398 45.0226 74.8628 45.1236 74.4211 45.1274C73.9794 45.1236 73.6024 45.0226 73.29 44.824C73.6838 44.6064 74.0608 44.3535 74.4211 44.0654C74.7984 44.3208 75.1754 44.5735 75.5521 44.824Z" fill="#CC182D"/>
<path fill-rule="evenodd" clip-rule="evenodd" d="M75.5521 44.824C75.1754 44.5735 74.7984 44.3208 74.4211 44.0655C74.0608 44.3536 73.6838 44.6065 73.29 44.824C73.6387 44.3721 74.0409 43.9675 74.4965 43.6104C74.9217 43.9676 75.2737 44.3722 75.5521 44.824Z" fill="#A1232F"/>
<path fill-rule="evenodd" clip-rule="evenodd" d="M9.19914 36.4805C9.00596 37.2794 8.80494 38.0886 8.59592 38.9078C8.4044 39.5039 8.20338 40.1107 7.99271 40.7283C8.12451 41.0692 8.17488 41.4231 8.14351 41.7902C8.3664 41.7505 8.56742 41.801 8.74673 41.9419C9.12796 42.1416 9.12796 42.3186 8.74673 42.4729C8.94775 42.5741 9.14892 42.6751 9.34994 42.7763C9.95315 42.6516 10.5564 42.677 11.1596 42.8522C11.1596 43.0039 11.1596 43.1556 11.1596 43.3073C11.5618 43.3073 11.9638 43.3073 12.366 43.3073C12.366 43.1556 12.366 43.0039 12.366 42.8522C13.7273 42.89 15.0845 42.8394 16.4377 42.7005C16.6705 42.7445 16.8716 42.8455 17.0409 43.0039C18.2478 42.8064 19.4792 42.7052 20.7356 42.7005C22.8741 42.7161 25.0106 42.792 27.1447 42.928C27.9823 43.1388 28.7865 43.4422 29.5576 43.8383C29.8257 44.1622 29.9263 44.5415 29.8592 44.9761C22.2688 44.9761 14.6783 44.9761 7.08789 44.9761C7.33295 43.7177 7.53397 42.4535 7.6911 41.1834C8.01684 39.5433 8.51962 37.9755 9.19914 36.4805Z" fill="#CA172B"/>
<path fill-rule="evenodd" clip-rule="evenodd" d="M7.69095 41.1826C7.53382 42.4527 7.33279 43.7169 7.08774 44.9753C14.6781 44.9753 22.2687 44.9753 29.859 44.9753C30.4209 45.0243 30.9739 44.9736 31.5179 44.8236C31.4233 44.6845 31.3729 44.5328 31.3671 44.3685C31.6185 44.5202 31.8195 44.7224 31.9703 44.9753C23.601 45.1269 15.2064 45.1774 6.78613 45.127C6.93829 43.7623 7.2399 42.4474 7.69095 41.1826Z" fill="#B9232F"/>
<path fill-rule="evenodd" clip-rule="evenodd" d="M95.006 39.666C95.5491 41.3445 96.0015 43.0638 96.3632 44.8241C94.4112 45.0236 92.4256 45.1248 90.4065 45.1275C88.4713 45.077 86.5358 45.0263 84.6006 44.9758C84.6193 44.8837 84.6695 44.8332 84.7514 44.8241C88.4955 44.9755 92.2656 45.026 96.0616 44.9758C95.6493 43.2343 95.2974 41.4645 95.006 39.666Z" fill="#BE2735"/>
<path fill-rule="evenodd" clip-rule="evenodd" d="M31.9703 44.9756C32.0522 44.9847 32.1024 45.0352 32.1211 45.1273C23.6767 45.279 15.2317 45.3295 6.78613 45.279C6.78613 45.2285 6.78613 45.1778 6.78613 45.1273C15.2064 45.1777 23.601 45.1271 31.9703 44.9756Z" fill="#710E14"/>
<path fill-rule="evenodd" clip-rule="evenodd" d="M73.2903 44.8242C73.6026 45.0228 73.9796 45.1238 74.4213 45.1276C74.863 45.1238 75.24 45.0228 75.5523 44.8242C75.7668 44.8621 75.9176 44.9885 76.0048 45.2035C74.9491 45.3047 73.8935 45.3047 72.8379 45.2035C72.9251 44.9885 73.0759 44.8621 73.2903 44.8242Z" fill="#9D323C"/>
<path fill-rule="evenodd" clip-rule="evenodd" d="M84.7512 44.5205C84.7512 44.6217 84.7512 44.7227 84.7512 44.8239C84.6694 44.833 84.6191 44.8835 84.6004 44.9756C86.5357 45.0261 88.4711 45.0768 90.4064 45.1273C92.4255 45.1246 94.4111 45.0234 96.3631 44.8239C96.3631 44.9251 96.3631 45.0261 96.3631 45.1273C96.3631 45.1779 96.3631 45.2285 96.3631 45.279C92.3404 45.3296 88.3189 45.279 84.2988 45.1273C84.3536 45.0237 84.4038 44.9225 84.4496 44.8239C84.4998 44.6722 84.6004 44.571 84.7512 44.5205Z" fill="#821923"/>
<path fill-rule="evenodd" clip-rule="evenodd" d="M84.4495 44.8242C84.4036 44.9228 84.3534 45.024 84.2987 45.1276C88.3188 45.2793 92.3402 45.3299 96.3629 45.2793C96.5122 46.1608 96.5624 47.071 96.5137 48.0101C96.4101 47.1909 96.3095 46.3565 96.2121 45.5069C92.205 45.3813 88.2087 45.4066 84.2233 45.5828C83.8901 45.1979 83.9655 44.9451 84.4495 44.8242Z" fill="#370000"/>
<path fill-rule="evenodd" clip-rule="evenodd" d="M102.245 44.2168C102.245 44.318 102.245 44.419 102.245 44.5202C101.996 44.9637 101.644 45.3177 101.189 45.5822C99.6889 45.4343 98.1809 45.3837 96.6649 45.4305C96.6649 46.2902 96.6649 47.1498 96.6649 48.0095C98.1227 48.0095 99.5804 48.0095 101.038 48.0095C101.038 48.06 101.038 48.1107 101.038 48.1612C99.5301 48.1612 98.0221 48.1612 96.5141 48.1612C96.5141 48.1107 96.5141 48.06 96.5141 48.0095C96.5628 47.0704 96.5126 46.1602 96.3633 45.2788C96.3633 45.2282 96.3633 45.1776 96.3633 45.127C98.0229 45.1524 99.6817 45.127 101.34 45.0512C101.667 44.7784 101.969 44.5003 102.245 44.2168Z" fill="#BA373F"/>
<path fill-rule="evenodd" clip-rule="evenodd" d="M31.2161 44.0654C31.5533 44.2003 31.8549 44.4025 32.1209 44.6723C32.3073 44.5591 32.5085 44.5086 32.7241 44.5206C32.624 44.8796 32.423 45.1831 32.1209 45.4308C31.6685 45.532 31.2161 45.633 30.7637 45.7342C22.8311 45.6124 14.8888 45.5619 6.93678 45.5825C6.808 46.4353 6.75778 47.295 6.78598 48.1615C6.6854 48.1615 6.58496 48.1615 6.48438 48.1615C6.61588 47.2074 6.66609 46.2467 6.63518 45.2791C6.6854 45.2791 6.73576 45.2791 6.78598 45.2791C15.2316 45.3296 23.6765 45.2791 32.1209 45.1274C32.1022 45.0353 32.052 44.9848 31.9701 44.9757C31.8193 44.7228 31.6183 44.5206 31.3669 44.3688C31.3167 44.2677 31.2663 44.1666 31.2161 44.0654Z" fill="#2E0000"/>
<path fill-rule="evenodd" clip-rule="evenodd" d="M0.753755 44.5205C1.06637 44.8361 1.41834 45.0888 1.80938 45.279C3.34048 45.4298 4.89873 45.4805 6.48428 45.4308C6.38867 46.2871 6.3383 47.1467 6.33347 48.0098C4.76678 47.9125 3.25875 48.0137 1.80938 48.3132C1.75916 48.3132 1.70879 48.3132 1.65857 48.3132C1.20556 48.3469 0.803369 48.4986 0.452148 48.7683C0.636732 47.6021 0.636732 46.439 0.452148 45.279C0.596316 45.0401 0.696902 44.7872 0.753755 44.5205Z" fill="#D01226"/>
<path fill-rule="evenodd" clip-rule="evenodd" d="M102.245 44.5205C102.436 45.3361 102.663 46.1451 102.923 46.9478C103.047 47.7847 103.022 48.5939 102.848 49.3752C102.676 48.342 102.072 47.8869 101.038 48.0098C99.5805 48.0098 98.1229 48.0098 96.665 48.0098C96.665 47.1501 96.665 46.2905 96.665 45.4308C98.1811 45.384 99.6891 45.4345 101.189 45.5825C101.644 45.318 101.996 44.9639 102.245 44.5205Z" fill="#D11327"/>
<path fill-rule="evenodd" clip-rule="evenodd" d="M1.80957 45.2793C3.41819 45.2793 5.02666 45.2793 6.63527 45.2793C6.66619 46.2469 6.61597 47.2077 6.48447 48.1617C4.91386 48.115 3.35545 48.1655 1.80957 48.3135C3.25894 48.014 4.76697 47.9128 6.33367 48.01C6.33849 47.147 6.38886 46.2874 6.48447 45.431C4.89893 45.4808 3.34068 45.4301 1.80957 45.2793Z" fill="#A61425"/>
<path fill-rule="evenodd" clip-rule="evenodd" d="M74.4965 48.3129C73.3392 48.2877 72.183 48.3129 71.028 48.3887C70.8816 48.6134 70.6806 48.7399 70.4248 48.768C70.5439 48.5717 70.6947 48.3947 70.8772 48.237C72.1103 48.1122 73.3168 48.1375 74.4965 48.3129Z" fill="#7F0C14"/>
<path fill-rule="evenodd" clip-rule="evenodd" d="M6.48432 48.1614C6.5849 48.1614 6.68534 48.1614 6.78592 48.1614C14.6781 48.136 22.5702 48.1614 30.462 48.2372C31.4439 48.6159 31.9467 49.3238 31.9701 50.3611C32.026 51.3119 31.6238 51.9694 30.7636 52.3333C27.3032 52.5545 23.8347 52.6304 20.3582 52.5609C14.0684 52.6097 7.78485 52.5592 1.50781 52.4092C-0.14258 50.983 -0.0922118 49.6176 1.65861 48.3131C1.70883 48.3131 1.7592 48.3131 1.80942 48.3131C3.3553 48.1652 4.9137 48.1146 6.48432 48.1614Z" fill="#FAF6F7"/>
<path fill-rule="evenodd" clip-rule="evenodd" d="M96.514 48.1618C98.022 48.1618 99.53 48.1618 101.038 48.1618C102.301 48.6241 102.904 49.5343 102.848 50.8926C102.598 51.2917 102.347 51.6962 102.094 52.1062C101.778 52.1889 101.476 52.3153 101.189 52.4855C94.9557 52.5867 88.7224 52.5867 82.4892 52.4855C82.2398 52.3933 81.9884 52.3174 81.7352 52.258C81.5844 52.0051 81.3834 51.8028 81.132 51.6511C80.8919 51.1253 80.7915 50.569 80.8304 49.9823C81.0427 49.0859 81.5956 48.5043 82.4892 48.2377C87.1638 48.1618 91.8387 48.1365 96.514 48.1618Z" fill="#FDF8F8"/>
<path fill-rule="evenodd" clip-rule="evenodd" d="M71.6318 50.8926C72.9247 51.838 74.1311 52.9 75.2511 54.0784C76.3067 55.1909 77.3624 56.3035 78.418 57.416C78.3065 57.4359 78.206 57.4105 78.1164 57.3402C75.9707 55.1562 73.8091 53.0071 71.6318 50.8926Z" fill="#851321"/>
<path fill-rule="evenodd" clip-rule="evenodd" d="M1.50781 52.4092C7.78485 52.5592 14.0684 52.6097 20.3582 52.5609C20.401 52.8514 20.3508 53.1042 20.2074 53.3194C20.2074 53.1172 20.2074 52.9148 20.2074 52.7126C13.9219 52.8129 7.68879 52.7117 1.50781 52.4092Z" fill="#A6182C"/>
<path fill-rule="evenodd" clip-rule="evenodd" d="M18.8504 54.8368C18.6682 54.9482 18.4672 54.9987 18.2472 54.9886C17.7871 54.9679 17.3347 55.0186 16.8899 55.1403C16.6134 54.95 16.3118 54.8488 15.9851 54.8368C15.9851 54.6346 15.9851 54.4322 15.9851 54.23C13.4468 54.1431 10.9335 54.3453 8.44497 54.8368C6.89577 54.6097 5.33737 54.4075 3.77007 54.23C3.26744 54.3312 2.76466 54.4322 2.26203 54.5334C1.92801 54.5076 1.6264 54.4065 1.35722 54.23C1.25663 54.4322 1.15619 54.6346 1.05561 54.8368C0.709515 54.254 0.659298 53.6472 0.904806 53.0164C7.28604 52.8175 13.67 52.8175 20.0568 53.0164C19.9401 53.2001 19.8145 53.2001 19.6798 53.0164C19.2963 53.2251 19.2713 53.4021 19.6044 53.5473C19.5038 53.5727 19.4034 53.5978 19.3028 53.6232C19.0262 53.4329 18.7246 53.3318 18.398 53.3198C18.3515 53.6875 18.4019 54.0414 18.5488 54.3817C18.7925 54.2884 18.9935 54.1367 19.152 53.9266C19.2856 54.0518 19.3358 54.2035 19.3028 54.3817C19.152 54.3817 19.0012 54.3817 18.8504 54.3817C18.8504 54.5334 18.8504 54.6851 18.8504 54.8368Z" fill="#CB0A27"/>
<path fill-rule="evenodd" clip-rule="evenodd" d="M74.4965 48.3132C75.5256 48.5893 76.1288 49.2468 76.3061 50.2854C77.8534 50.3767 79.3614 50.2756 80.8302 49.9819C80.7913 50.5686 80.8918 51.1249 81.1318 51.6507C80.7595 51.4828 80.6087 51.1794 80.6794 50.7405C79.6238 50.7405 78.5682 50.7405 77.5126 50.7405C77.5126 50.8922 77.5126 51.0439 77.5126 51.1956C77.9147 51.1956 78.3168 51.1956 78.719 51.1956C78.719 51.6002 78.719 52.0047 78.719 52.4093C79.1212 52.4093 79.5232 52.4093 79.9254 52.4093C79.9254 52.6115 79.9254 52.8139 79.9254 53.0161C79.7244 53.0161 79.5232 53.0161 79.3222 53.0161C79.3222 53.2183 79.3222 53.4207 79.3222 53.6229C79.5232 53.6229 79.7244 53.6229 79.9254 53.6229C79.9254 53.8251 79.9254 54.0275 79.9254 54.2298C82.5412 54.2803 85.1551 54.2298 87.7672 54.078C88.0347 53.9738 88.2861 53.8474 88.5212 53.6988C88.0688 53.6483 87.6164 53.5976 87.164 53.5471C87.3298 53.3919 87.5309 53.316 87.7672 53.3195C88.3672 53.4036 88.9704 53.4542 89.5768 53.4712C92.825 53.4123 96.0672 53.2606 99.3036 53.0161C99.975 53.1376 100.654 53.1124 101.339 52.9402C94.9033 52.965 88.5194 52.8384 82.1875 52.561C88.5607 52.7371 94.9448 52.7623 101.339 52.6368C101.712 52.6034 101.964 52.4266 102.093 52.1058C102.347 51.6958 102.598 51.2913 102.847 50.8922C102.694 52.1014 102.569 53.3151 102.47 54.5332C102.395 54.609 102.32 54.6849 102.244 54.7607C100.094 55.062 97.9328 55.2137 95.7597 55.2159C95.1237 55.414 94.4702 55.5909 93.7993 55.7468C91.598 55.4894 89.3864 55.363 87.164 55.3676C86.3412 54.903 85.9391 55.1306 85.9575 56.0502C85.5553 56.0502 85.1533 56.0502 84.7511 56.0502C84.7511 55.848 84.7511 55.6456 84.7511 55.4434C84.3489 55.4434 83.9469 55.4434 83.5447 55.4434C83.5447 55.5951 83.5447 55.7468 83.5447 55.8985C83.1425 55.8985 82.7405 55.8985 82.3383 55.8985C82.3705 55.6491 82.3202 55.4216 82.1875 55.2159C81.4601 55.351 80.7061 55.4269 79.9254 55.4434C79.9254 55.6963 79.9254 55.9491 79.9254 56.202C79.7244 56.202 79.5232 56.202 79.3222 56.202C79.3686 55.8342 79.3183 55.4803 79.1714 55.14C79.067 55.2196 78.9916 55.3208 78.9452 55.4434C78.6185 55.1975 78.2415 55.071 77.8142 55.0641C77.8142 54.7354 77.6884 54.4068 77.4372 54.078C77.2847 53.9511 77.1087 53.9005 76.9093 53.9263C76.9093 54.2298 76.9093 54.5332 76.9093 54.8366C76.4889 54.9008 76.1873 54.749 76.0045 54.3815C75.775 54.2203 75.5238 54.1192 75.2505 54.078C74.1305 52.8996 72.9241 51.8376 71.6312 50.8922C71.1845 50.3667 70.707 49.861 70.1986 49.3751C70.082 49.0941 70.1574 48.8918 70.4248 48.7683C70.6806 48.7402 70.8816 48.6137 71.028 48.389C72.183 48.3132 73.3392 48.288 74.4965 48.3132Z" fill="#C70D27"/>
<path fill-rule="evenodd" clip-rule="evenodd" d="M81.132 51.6505C81.3834 51.8022 81.5844 52.0044 81.7352 52.2573C81.7836 52.4922 81.9344 52.5933 82.1876 52.5607C88.5195 52.8382 94.9035 52.9647 101.34 52.94C100.654 53.1122 99.9751 53.1374 99.3038 53.0159C96.0674 53.2604 92.8251 53.4121 89.577 53.471C88.9706 53.454 88.3674 53.4033 87.7673 53.3193C87.531 53.3158 87.33 53.3916 87.1641 53.5468C87.6165 53.5973 88.0689 53.648 88.5213 53.6985C88.2862 53.8472 88.0348 53.9736 87.7673 54.0778C85.1553 54.2295 82.5414 54.28 79.9255 54.2295C79.9255 54.0273 79.9255 53.8249 79.9255 53.6227C79.7245 53.6227 79.5234 53.6227 79.3223 53.6227C79.3223 53.4205 79.3223 53.2181 79.3223 53.0159C79.5234 53.0159 79.7245 53.0159 79.9255 53.0159C79.9255 52.8136 79.9255 52.6112 79.9255 52.409C79.5234 52.409 79.1213 52.409 78.7191 52.409C78.7191 52.0044 78.7191 51.6 78.7191 51.1954C78.3169 51.1954 77.9149 51.1954 77.5127 51.1954C77.5127 51.0436 77.5127 50.8919 77.5127 50.7402C78.5683 50.7402 79.6239 50.7402 80.6796 50.7402C80.6088 51.1791 80.7596 51.4825 81.132 51.6505Z" fill="#CE0C24"/>
<path fill-rule="evenodd" clip-rule="evenodd" d="M102.094 52.1064C101.964 52.4272 101.713 52.604 101.34 52.6374C94.9451 52.7629 88.561 52.7377 82.1878 52.5616C81.9346 52.5942 81.7838 52.493 81.7354 52.2582C81.9886 52.3176 82.2399 52.3935 82.4894 52.4857C88.7225 52.5869 94.9558 52.5869 101.189 52.4857C101.477 52.3155 101.778 52.1891 102.094 52.1064Z" fill="#AA1A30"/>
<path fill-rule="evenodd" clip-rule="evenodd" d="M1.65884 48.3135C-0.0919899 49.618 -0.142358 50.9834 1.50803 52.4096C7.68901 52.7121 13.9222 52.8133 20.2076 52.713C20.2076 52.9152 20.2076 53.1176 20.2076 53.3198C20.0154 53.9386 19.6635 54.4443 19.152 54.8369C19.0514 54.8369 18.951 54.8369 18.8504 54.8369C18.8504 54.6852 18.8504 54.5335 18.8504 54.3818C19.0012 54.3818 19.152 54.3818 19.3028 54.3818C19.3358 54.2035 19.2856 54.0518 19.152 53.9267C18.9935 54.1368 18.7925 54.2885 18.5488 54.3818C18.4019 54.0415 18.3515 53.6876 18.398 53.3198C18.7246 53.3318 19.0262 53.433 19.3028 53.6232C19.4034 53.5979 19.5038 53.5727 19.6044 53.5474C19.2713 53.4022 19.2963 53.2252 19.6798 53.0164C19.8145 53.2001 19.9401 53.2001 20.0568 53.0164C13.67 52.8175 7.28606 52.8175 0.904819 53.0164C0.659312 53.6472 0.709529 54.254 1.05562 54.8369C1.15621 54.6347 1.25664 54.4323 1.35723 54.2301C1.62641 54.4065 1.92802 54.5077 2.26205 54.5335C2.76468 54.4323 3.26745 54.3313 3.77008 54.2301C5.33738 54.4076 6.89578 54.6098 8.44498 54.8369C10.9335 54.3454 13.4468 54.1431 15.9851 54.2301C15.9851 54.4323 15.9851 54.6347 15.9851 54.8369C16.3118 54.8489 16.6134 54.9501 16.89 55.1403C17.3347 55.0187 17.7871 54.968 18.2472 54.9886C18.1842 55.0981 18.0837 55.174 17.9456 55.2162C16.912 55.2943 15.9067 55.4207 14.9295 55.5954C14.4939 55.3533 14.0917 55.404 13.7231 55.7472C13.6012 55.7004 13.5007 55.6246 13.4215 55.5196C12.1977 55.5176 10.9913 55.3911 9.80221 55.1403C9.48899 55.3583 9.13717 55.4595 8.74659 55.4437C8.74659 55.5954 8.74659 55.7472 8.74659 55.8989C8.54557 55.8989 8.3444 55.8989 8.14338 55.8989C8.14338 55.7472 8.14338 55.5954 8.14338 55.4437C7.48798 55.4186 6.83455 55.4439 6.18293 55.5196C5.89234 55.8807 5.51533 56.0577 5.05191 56.0506C4.47825 55.9436 3.90022 55.8931 3.31767 55.8989C3.31767 55.7472 3.31767 55.5954 3.31767 55.4437C2.41285 55.4437 1.50803 55.4437 0.603213 55.4437C0.628246 54.633 0.603062 53.824 0.527811 53.0164C0.485888 52.8775 0.410486 52.7764 0.301607 52.713C0.289693 52.4961 0.339911 52.2937 0.45241 52.1062C0.263755 51.9346 0.112952 51.7324 0 51.4993C0.0864103 50.5732 0.237214 49.6629 0.45241 48.7686C0.803631 48.4989 1.20582 48.3472 1.65884 48.3135Z" fill="#C50C26"/>
<path fill-rule="evenodd" clip-rule="evenodd" d="M101.038 48.0098C102.072 47.8869 102.676 48.3421 102.848 49.3752C102.93 52.1017 102.88 54.8324 102.697 57.5674C102.647 57.5674 102.597 57.5674 102.546 57.5674C94.4972 57.6167 86.4543 57.566 78.4178 57.4157C77.3622 56.3032 76.3066 55.1906 75.251 54.0781C75.5242 54.1192 75.7755 54.2204 76.005 54.3816C76.1878 54.7491 76.4894 54.9008 76.9098 54.8367C76.9098 54.5333 76.9098 54.2298 76.9098 53.9264C77.1092 53.9006 77.2852 53.9512 77.4376 54.0781C77.6889 54.4069 77.8146 54.7355 77.8146 55.0642C78.242 55.0711 78.619 55.1976 78.9457 55.4435C78.9921 55.3209 79.0675 55.2197 79.1719 55.1401C79.3187 55.4804 79.3691 55.8343 79.3227 56.202C79.5237 56.202 79.7249 56.202 79.9259 56.202C79.9259 55.9491 79.9259 55.6964 79.9259 55.4435C80.7066 55.427 81.4606 55.3511 82.1879 55.2159C82.3206 55.4217 82.371 55.6492 82.3387 55.8986C82.7409 55.8986 83.143 55.8986 83.5452 55.8986C83.5452 55.7469 83.5452 55.5952 83.5452 55.4435C83.9473 55.4435 84.3494 55.4435 84.7516 55.4435C84.7516 55.6457 84.7516 55.8481 84.7516 56.0503C85.1538 56.0503 85.5558 56.0503 85.958 56.0503C85.9396 55.1307 86.3417 54.9031 87.1644 55.3677C89.3868 55.3631 91.5985 55.4895 93.7998 55.7469C94.4707 55.591 95.1241 55.4141 95.7602 55.2159C97.9333 55.2138 100.095 55.0621 102.245 54.7608C102.32 54.685 102.396 54.6091 102.471 54.5333C102.569 53.3152 102.695 52.1015 102.848 50.8923C102.904 49.534 102.301 48.6238 101.038 48.1615C101.038 48.111 101.038 48.0603 101.038 48.0098Z" fill="#BA0921"/>
<path fill-rule="evenodd" clip-rule="evenodd" d="M0.301183 52.7129C0.410063 52.7763 0.485465 52.8773 0.527388 53.0163C0.602639 53.8238 0.627823 54.6329 0.60279 55.4436C1.50761 55.4436 2.41243 55.4436 3.31725 55.4436C3.31725 55.5953 3.31725 55.747 3.31725 55.8988C3.8998 55.893 4.47783 55.9435 5.05149 56.0505C5.5149 56.0576 5.89191 55.8805 6.18251 55.5195C6.83413 55.4438 7.48756 55.4184 8.14295 55.4436C8.14295 55.5953 8.14295 55.747 8.14295 55.8988C8.34397 55.8988 8.54514 55.8988 8.74616 55.8988C8.74616 55.747 8.74616 55.5953 8.74616 55.4436C9.13674 55.4594 9.48857 55.3582 9.80179 55.1402C10.9909 55.391 12.1973 55.5175 13.4211 55.5195C13.5002 55.6245 13.6008 55.7003 13.7227 55.747C14.0912 55.4039 14.4934 55.3532 14.9291 55.5953C14.9421 55.7464 14.8917 55.8728 14.7783 55.9746C14.5319 56.0496 14.2805 56.0747 14.0243 56.0505C14.0243 56.2527 14.0243 56.4551 14.0243 56.6573C13.7546 56.6141 13.5033 56.6646 13.2703 56.809C13.3018 56.8979 13.3521 56.9738 13.4211 57.0366C13.2516 57.0743 13.1008 57.1502 12.9687 57.2641C8.82202 57.3653 4.70011 57.4663 0.60279 57.5675C0.552572 57.5675 0.502204 57.5675 0.451986 57.5675C0.31566 55.9541 0.265443 54.3359 0.301183 52.7129Z" fill="#BB0A20"/>
<path fill-rule="evenodd" clip-rule="evenodd" d="M18.8507 54.8369C18.9513 54.8369 19.0517 54.8369 19.1523 54.8369C18.8518 55.0892 18.4999 55.2662 18.0967 55.3679C16.2759 55.3163 14.7679 55.9483 13.5726 57.2642C13.3212 57.3654 13.07 57.4665 12.8186 57.5677C8.74689 57.5677 4.6752 57.5677 0.603516 57.5677C4.70084 57.4665 8.82275 57.3654 12.9694 57.2642C13.1015 57.1503 13.2523 57.0745 13.4218 57.0367C13.3529 56.9739 13.3025 56.898 13.271 56.8091C13.504 56.6647 13.7554 56.6142 14.025 56.6574C14.025 56.4552 14.025 56.2528 14.025 56.0506C14.2812 56.0748 14.5326 56.0497 14.779 55.9747C14.8924 55.8729 14.9428 55.7466 14.9298 55.5955C15.907 55.4207 16.9123 55.2943 17.9459 55.2162C18.084 55.174 18.1845 55.0982 18.2475 54.9886C18.4675 54.9988 18.6685 54.9483 18.8507 54.8369Z" fill="#B01529"/>
<path fill-rule="evenodd" clip-rule="evenodd" d="M0.603543 57.5674C4.67523 57.5674 8.74692 57.5674 12.8186 57.5674C8.82307 57.7188 4.80175 57.7693 0.754346 57.7191C0.754346 57.972 0.754346 58.2247 0.754346 58.4776C0.609424 58.2099 0.559056 57.9064 0.603543 57.5674Z" fill="#841622"/>
<path fill-rule="evenodd" clip-rule="evenodd" d="M78.418 57.416C86.4544 57.5664 94.4974 57.617 102.546 57.5677C102.592 57.9559 102.542 58.31 102.396 58.6297C102.396 58.3263 102.396 58.0228 102.396 57.7194C94.5037 57.7194 86.6116 57.7194 78.7196 57.7194C78.5688 57.6689 78.4682 57.5677 78.418 57.416Z" fill="#8F1824"/>
<path fill-rule="evenodd" clip-rule="evenodd" d="M13.5722 57.2637C13.3519 57.6696 13 57.8972 12.5166 57.9464C8.64619 58.0222 4.77568 58.0475 0.90471 58.0222C1.02022 59.255 1.17103 60.4686 1.35712 61.6632C3.37034 61.6127 5.381 61.6633 7.38925 61.8149C7.90153 61.9256 8.20313 62.2291 8.29407 62.7251C7.89866 62.3999 7.44625 62.1977 6.93684 62.1183C5.05346 61.9674 3.14323 61.9167 1.20632 61.9666C1.04616 60.7995 0.89536 59.6365 0.753906 58.4773C0.753906 58.2244 0.753906 57.9717 0.753906 57.7188C4.80131 57.769 8.82263 57.7185 12.8182 57.5671C13.0696 57.4659 13.3208 57.3649 13.5722 57.2637Z" fill="#360200"/>
<path fill-rule="evenodd" clip-rule="evenodd" d="M78.7197 57.7188C86.6117 57.7188 94.5038 57.7188 102.396 57.7188C102.396 58.0222 102.396 58.3256 102.396 58.629C102.283 59.3853 102.182 60.1438 102.094 60.9046C101.994 61.2585 101.893 61.6126 101.793 61.9666C101.827 61.2014 101.777 60.4428 101.642 59.691C101.672 59.4318 101.798 59.2296 102.019 59.0841C102.094 58.7337 102.119 58.3797 102.094 58.0222C94.2508 58.1226 86.4594 58.0216 78.7197 57.7188Z" fill="#350200"/>
<path fill-rule="evenodd" clip-rule="evenodd" d="M26.2396 65.4563C26.4823 65.6684 26.6079 65.9213 26.6166 66.2149C24.4787 68.6989 22.3424 71.1768 20.2075 73.6486C18.4325 71.8128 16.6731 69.9923 14.9294 68.1871C14.4827 67.6616 14.0051 67.1559 13.4968 66.67C12.3128 64.9164 12.2122 63.0959 13.1951 61.2085C15.0743 58.7451 17.4118 58.1636 20.2075 59.4639C22.2985 61.3906 24.3092 63.3881 26.2396 65.4563Z" fill="#FDFCFC"/>
<path fill-rule="evenodd" clip-rule="evenodd" d="M0.452148 57.5674C0.502366 57.5674 0.552734 57.5674 0.602952 57.5674C0.558465 57.9064 0.608833 58.2099 0.753755 58.4776C0.895208 59.6368 1.04601 60.7998 1.20616 61.9669C3.14308 61.917 5.05331 61.9677 6.93669 62.1186C5.02646 62.1186 3.11639 62.1186 1.20616 62.1186C1.10558 61.9669 1.00514 61.8152 0.904558 61.6635C0.671567 60.308 0.520764 58.9426 0.452148 57.5674Z" fill="#AA242B"/>
<path fill-rule="evenodd" clip-rule="evenodd" d="M101.792 61.9665C101.592 63.4252 101.241 64.8412 100.736 66.2144C96.262 66.2397 91.7882 66.2144 87.3147 66.1385C87.0509 65.9425 86.7745 65.7656 86.4852 65.6075C85.5255 64.0475 85.8522 62.859 87.4655 62.0424C92.2406 61.9665 97.0161 61.9412 101.792 61.9665Z" fill="#F9F7F7"/>
<path fill-rule="evenodd" clip-rule="evenodd" d="M1.20647 62.2702C3.43775 62.1707 5.64958 62.297 7.84181 62.6495C8.29844 63.3743 8.39903 64.1582 8.14342 65.0009C7.73549 65.2124 7.38367 65.4906 7.08779 65.8353C5.48008 65.9112 3.87146 65.9365 2.26209 65.9112C2.1615 65.9112 2.11129 65.8607 2.11129 65.7595C1.8406 64.6961 1.48877 63.6595 1.05566 62.6495C1.16907 62.5477 1.21944 62.4213 1.20647 62.2702Z" fill="#D10F27"/>
<path fill-rule="evenodd" clip-rule="evenodd" d="M33.9303 63.1807C30.224 67.2543 26.5545 71.3504 22.9217 75.469C22.898 75.2607 22.9232 75.0583 22.9971 74.8622C23.4993 74.3923 23.3735 74.1901 22.6201 74.2553C22.6531 74.4336 22.6029 74.5853 22.4693 74.7104C21.7925 74.4791 21.4407 74.732 21.4137 75.469C21.2126 75.469 21.0115 75.469 20.8104 75.469C20.8361 75.6695 20.7859 75.8466 20.6596 76C20.3113 76.0754 19.9595 76.1005 19.604 76.0758C19.4243 75.1598 19.3489 74.2496 19.3778 73.3451C19.0711 72.8279 18.6941 72.3728 18.2468 71.9797C17.3874 71.4044 16.6082 70.7471 15.9093 70.0075C15.8348 69.7596 15.8098 69.5067 15.8339 69.249C15.4719 69.1657 15.1199 69.0393 14.7783 68.8697C14.911 68.664 14.9614 68.4364 14.9291 68.187C16.6729 69.9922 18.4323 71.8127 20.2072 73.6485C22.3422 71.1767 24.4784 68.6989 26.6164 66.2148C26.6076 65.9213 26.482 65.6684 26.2394 65.4563C26.1201 64.913 26.2959 64.8625 26.7672 65.3046C26.8424 64.649 26.8676 63.9917 26.8426 63.3324C27.0436 63.3324 27.2448 63.3324 27.4458 63.3324C27.4458 63.5346 27.4458 63.737 27.4458 63.9392C27.6468 63.9392 27.848 63.9392 28.049 63.9392C28.049 64.6472 28.049 65.3551 28.049 66.0631C28.7044 66.0379 29.3578 66.0633 30.0094 66.139C30.1039 66.2527 30.1793 66.3793 30.2357 66.5182C30.595 66.0975 31.0224 65.7689 31.5175 65.5321C31.3165 65.4816 31.1153 65.4309 30.9143 65.3804C31.2322 65.3258 31.5338 65.2246 31.8191 65.077C31.7689 65.0265 31.7185 64.9758 31.6683 64.9253C31.9948 64.4837 32.3718 64.2056 32.7993 64.0909C32.964 63.4945 33.341 63.1911 33.9303 63.1807Z" fill="#1F0504"/>
<path fill-rule="evenodd" clip-rule="evenodd" d="M1.20605 62.2708C1.20605 62.2203 1.20605 62.1697 1.20605 62.1191C3.11628 62.1191 5.02635 62.1191 6.93658 62.1191C7.44599 62.1985 7.8984 62.4007 8.29381 62.726C8.80111 63.8507 8.65031 64.862 7.8414 65.7601C7.60765 65.9029 7.35641 66.0039 7.08738 66.0635C5.47876 66.0635 3.8703 66.0635 2.26168 66.0635C2.26168 66.013 2.26168 65.9624 2.26168 65.9118C3.87105 65.9372 5.47967 65.9118 7.08738 65.836C7.38326 65.4913 7.73508 65.2131 8.143 65.0016C8.39862 64.1589 8.29803 63.375 7.8414 62.6501C5.64917 62.2977 3.43734 62.1713 1.20605 62.2708Z" fill="#BF1C2F"/>
<path fill-rule="evenodd" clip-rule="evenodd" d="M2.26154 66.0635C3.87016 66.0635 5.47863 66.0635 7.08725 66.0635C5.55614 66.2143 3.99789 66.2649 2.41235 66.2152C2.41235 66.3669 2.41235 66.5186 2.41235 66.6703C2.2715 66.5083 2.22113 66.3061 2.26154 66.0635Z" fill="#8B1925"/>
<path fill-rule="evenodd" clip-rule="evenodd" d="M7.842 65.7598C7.77927 66.1014 7.57825 66.329 7.23879 66.4425C5.62293 66.4201 4.06453 66.5465 2.56389 66.8217C2.4633 66.8217 2.41309 66.7712 2.41309 66.67C2.41309 66.5183 2.41309 66.3666 2.41309 66.2149C3.99863 66.2646 5.55688 66.214 7.08799 66.0632C7.35702 66.0036 7.60826 65.9025 7.842 65.7598Z" fill="#310200"/>
<path fill-rule="evenodd" clip-rule="evenodd" d="M48.106 78.1999C50.2178 78.1746 52.3291 78.1999 54.4397 78.2758C55.5561 78.6761 55.9835 79.46 55.7216 80.6273C55.4451 81.1077 55.0681 81.487 54.5905 81.7651C52.4793 81.8663 50.368 81.8663 48.2568 81.7651C47.0697 81.1434 46.7429 80.2078 47.2766 78.9585C47.5375 78.6699 47.8139 78.417 48.106 78.1999Z" fill="#FCFBFA"/>
<path fill-rule="evenodd" clip-rule="evenodd" d="M62.282 78.1996C64.1424 78.0735 64.9216 78.9333 64.6194 80.7786C64.0516 81.7283 63.2222 82.0571 62.1312 81.7647C61.6967 81.5749 61.4203 81.2463 61.3017 80.7786C60.9484 79.6143 61.2752 78.7545 62.282 78.1996Z" fill="#FBF9F9"/>
<path fill-rule="evenodd" clip-rule="evenodd" d="M11.7627 83.6611C12.8228 84.7273 13.8281 85.84 14.7788 86.9987C13.6073 86.0232 12.6019 84.9106 11.7627 83.6611Z" fill="#AA3634"/>
<path fill-rule="evenodd" clip-rule="evenodd" d="M48.257 87.1501C50.4191 87.1248 52.5807 87.1501 54.7416 87.226C55.7979 87.8477 56.0744 88.7326 55.571 89.8809C55.3264 90.2459 54.9996 90.524 54.5908 90.7153C52.4293 90.8164 50.2677 90.8164 48.1062 90.7153C47.1349 90.0591 46.8585 89.1742 47.2768 88.0604C47.5021 87.6335 47.8287 87.3301 48.257 87.1501Z" fill="#FDFCFB"/>
<path fill-rule="evenodd" clip-rule="evenodd" d="M62.282 87.1506C64.0676 86.9998 64.8467 87.8088 64.6194 89.5779C64.1343 90.6532 63.3049 91.0325 62.1312 90.7157C60.6916 89.467 60.7418 88.2787 62.282 87.1506Z" fill="#F9F8F8"/>
<path fill-rule="evenodd" clip-rule="evenodd" d="M25.335 94.8878C25.5912 94.8636 25.8426 94.8887 26.089 94.9637C26.9784 95.5511 27.9083 96.0821 28.8788 96.5566C29.0764 96.6522 29.2022 96.8039 29.2558 97.0117C27.8997 96.3803 26.5927 95.6725 25.335 94.8878Z" fill="#3B0404"/>
<path fill-rule="evenodd" clip-rule="evenodd" d="M29.2559 97.0117C30.4392 97.1774 31.4948 97.6325 32.4227 98.3771C31.3439 97.9605 30.2883 97.5054 29.2559 97.0117Z" fill="#3D0405"/>
<path fill-rule="evenodd" clip-rule="evenodd" d="M35.8916 99.7422C37.5014 100.097 39.11 100.451 40.7173 100.804C42.1118 101.173 43.5192 101.476 44.9398 101.714C41.7818 101.507 38.7658 100.85 35.8916 99.7422Z" fill="#C74544"/>
<path fill-rule="evenodd" clip-rule="evenodd" d="M40.7168 100.805C41.4627 100.788 42.1915 100.889 42.9034 101.108C43.12 101.099 43.321 101.048 43.5067 100.956C44.462 101.278 45.4422 101.505 46.4473 101.639C49.5635 101.715 52.6802 101.74 55.7971 101.715C52.2017 102.096 48.5824 102.096 44.9393 101.715C43.5187 101.477 42.1113 101.173 40.7168 100.805Z" fill="#47070B"/>
<path fill-rule="evenodd" clip-rule="evenodd" d="M60.3211 101.107C58.9613 101.486 57.5539 101.689 56.0986 101.714C56.1617 101.605 56.2621 101.529 56.4002 101.487C57.7104 101.381 59.0174 101.255 60.3211 101.107Z" fill="#3B0102"/>
</svg>
