<svg width="176" height="151" viewBox="0 0 176 151" fill="none" xmlns="http://www.w3.org/2000/svg">
<g clip-path="url(#clip0_651_929)">
<path d="M51.723 149.424C54.5483 147.031 56.2645 143.251 55.8144 139.572C55.3644 135.892 52.5768 132.509 48.961 131.728C45.3452 130.946 41.2233 133.109 40.1251 136.649C39.5207 129.824 38.8242 122.713 35.2037 116.901C31.9253 111.638 26.2472 107.872 20.0935 107.199C13.9397 106.525 7.46059 109.069 3.62271 113.937C-0.215172 118.805 -1.15486 125.883 1.53309 131.471C3.51321 135.589 7.16129 138.653 10.9836 141.145C23.3347 149.132 38.1483 152.38 52.6987 150.292" fill="#F2F2F2"/>
<path d="M9.70847 109.211C14.7861 113.356 19.4443 117.992 23.6156 123.051C30.1438 130.943 35.4265 139.791 39.2796 149.286C39.5617 149.979 38.4393 150.281 38.1604 149.596C35.7101 143.592 32.6786 137.843 29.1094 132.432C23.5436 123.979 16.7247 116.426 8.88774 110.033C8.3083 109.56 9.13381 108.742 9.70847 109.211Z" fill="white"/>
<path d="M53.6745 149.424C50.8492 147.031 49.133 143.251 49.5831 139.572C50.0331 135.892 52.8207 132.509 56.4365 131.728C60.0523 130.946 64.1742 133.109 65.2724 136.649C65.8768 129.824 66.5733 122.713 70.1939 116.901C73.4722 111.638 79.1503 107.872 85.304 107.199C91.4578 106.525 97.9369 109.069 101.775 113.937C105.613 118.805 106.552 125.883 103.864 131.471C101.884 135.589 98.2362 138.653 94.4139 141.145C82.0628 149.132 67.2492 152.38 52.6988 150.292" fill="#F2F2F2"/>
<path d="M95.6895 109.211C90.6118 113.356 85.9537 117.992 81.7823 123.051C75.2541 130.943 69.9715 139.791 66.1183 149.286C65.8363 149.979 66.9586 150.281 67.2376 149.596C73.5419 134.163 83.6063 120.561 96.5102 110.033C97.0896 109.56 96.2641 108.742 95.6895 109.211Z" fill="white"/>
<path d="M62.0587 67.9267C67.2856 67.9267 71.5228 63.68 71.5228 58.4414C71.5228 53.2028 67.2856 48.9561 62.0587 48.9561C56.8319 48.9561 52.5947 53.2028 52.5947 58.4414C52.5947 63.68 56.8319 67.9267 62.0587 67.9267Z" fill="#F2F2F2"/>
<path d="M32.8781 25.7441H98.0826V29.3196H41.202C37.8576 29.3196 34.546 29.9798 31.4562 31.2625C28.3664 32.5452 25.559 34.4253 23.1942 36.7954C20.8293 39.1656 18.9534 41.9793 17.6736 45.0761C16.3938 48.1728 15.7351 51.4919 15.7351 54.8438V95.4649H8.60027C8.28489 95.4649 7.98243 95.3393 7.75943 95.1158C7.53643 94.8923 7.41114 94.5892 7.41113 94.2731V51.2683C7.41113 47.9164 8.06985 44.5974 9.34969 41.5006C10.6295 38.4039 12.5054 35.5901 14.8702 33.22C17.2351 30.8498 20.0425 28.9697 23.1323 27.687C26.2221 26.4043 29.5337 25.7441 32.8781 25.7441Z" fill="#F2F2F2"/>
<path d="M45.4199 149.624V95.3125H61.2951V149.624C61.2946 149.989 61.1498 150.339 60.8922 150.597C60.6347 150.855 60.2855 151 59.9212 151H46.7937C46.4295 151 46.0803 150.855 45.8228 150.597C45.5652 150.339 45.4203 149.989 45.4199 149.624Z" fill="#242424"/>
<path d="M4.05371 94.2414V50.0783C4.06163 43.0478 6.85172 36.3075 11.8119 31.3362C16.772 26.3649 23.4971 23.5685 30.5118 23.5605H97.778V95.7713H5.58017C5.17547 95.7708 4.78748 95.6095 4.50132 95.3227C4.21515 95.0359 4.05417 94.647 4.05371 94.2414ZM97.1675 24.1725H30.5118C23.659 24.1803 17.0891 26.9121 12.2434 31.7687C7.39774 36.6253 4.67204 43.21 4.66429 50.0783V94.2414C4.66456 94.4848 4.76114 94.7181 4.93284 94.8902C5.10454 95.0623 5.33734 95.1591 5.58017 95.1593H97.1675V24.1725Z" fill="#242424"/>
<path d="M62.0589 63.3374C60.602 63.3357 59.2052 62.7549 58.175 61.7224C57.1448 60.6899 56.5653 59.29 56.5637 57.8298V18.3587C56.5634 18.1153 56.4668 17.882 56.2951 17.7099C56.1234 17.5378 55.8906 17.441 55.6478 17.4407H34.2774C33.8727 17.4403 33.4848 17.2789 33.1986 16.9921C32.9124 16.7053 32.7514 16.3164 32.751 15.9108V1.52989C32.7514 1.12428 32.9124 0.735419 33.1986 0.448611C33.4848 0.161803 33.8727 0.000469688 34.2774 0H66.0277C66.4324 0.000464031 66.8204 0.161797 67.1065 0.448606C67.3927 0.735416 67.5537 1.12428 67.5542 1.52989V57.8298C67.5525 59.29 66.973 60.6899 65.9428 61.7224C64.9126 62.7549 63.5158 63.3357 62.0589 63.3374Z" fill="#FF4B55"/>
<path d="M100.22 22.9483C104.825 22.9386 109.246 24.763 112.51 28.0201C115.773 31.2771 117.612 35.7001 117.622 40.316V90.5911H151.814C153.188 90.5882 154.506 91.1323 155.479 92.1038C156.453 93.0752 157.001 94.3943 157.004 95.771H82.8184V40.316C82.828 35.7001 84.6668 31.2771 87.9302 28.0201C91.1937 24.763 95.6144 22.9386 100.22 22.9483Z" fill="#242424"/>
<path d="M96.0441 51.5774L99.6474 66.4957L170.133 49.3941L166.53 34.4759C166.487 34.2935 166.398 34.125 166.272 33.9862C166.146 33.8474 165.987 33.7427 165.81 33.6818C165.68 33.6358 165.541 33.6149 165.403 33.6204L124.659 12.4767C124.42 12.3546 124.146 12.3219 123.885 12.3847C123.625 12.4475 123.395 12.6016 123.238 12.8192L103.601 40.2635L96.1987 50.6125C96.1852 50.6307 96.1758 50.6515 96.1712 50.6735C96.1665 50.6956 96.1666 50.7185 96.1715 50.7405C96.0208 50.9918 95.9751 51.2925 96.0441 51.5774Z" fill="white"/>
<path d="M96.1717 50.7405C96.1752 50.7599 96.1825 50.7784 96.1931 50.795C96.2038 50.8116 96.2176 50.8259 96.2337 50.8371C96.2529 50.8503 96.2745 50.8594 96.2972 50.8639C96.32 50.8684 96.3434 50.8682 96.366 50.8633C96.4029 50.8535 96.4352 50.831 96.4573 50.7999L96.4827 50.7646L96.8681 50.2244L103.868 40.444L123.499 13.006C123.611 12.8505 123.775 12.7405 123.961 12.6958C124.147 12.6511 124.343 12.6747 124.513 12.7624L164.941 33.7423L165.304 33.931C165.318 33.9372 165.334 33.9424 165.349 33.9468C165.376 33.9418 165.404 33.9391 165.432 33.9388C165.47 33.9261 165.501 33.8993 165.52 33.8639C165.53 33.8453 165.536 33.8249 165.538 33.8039C165.54 33.7829 165.538 33.7618 165.532 33.7416C165.525 33.7215 165.515 33.7028 165.502 33.6866C165.488 33.6703 165.472 33.6569 165.453 33.6471L165.403 33.6204L124.659 12.4767C124.421 12.3546 124.146 12.3219 123.885 12.3847C123.625 12.4475 123.395 12.6016 123.238 12.8192L103.602 40.2635L96.1989 50.6125C96.1855 50.6307 96.1761 50.6515 96.1714 50.6735C96.1667 50.6956 96.1668 50.7185 96.1717 50.7405Z" fill="#242424"/>
<path d="M117.341 52.262L118.91 52.4365L130.554 53.7293L138.274 54.5859L138.73 54.6367L148.363 47.0959L148.732 46.8071L151.007 45.0262L159.101 38.6906L159.15 38.2455L162.029 12.2025C162.068 11.8439 161.964 11.4843 161.739 11.2026C161.514 10.9209 161.187 10.7401 160.829 10.6997L122.407 6.43384C122.049 6.39468 121.69 6.49922 121.409 6.72455C121.128 6.94989 120.948 7.27766 120.907 7.63609L118.877 26.0062L117.751 36.191L116.743 45.3025L116.276 49.5339L116.14 50.7596C116.101 51.1183 116.206 51.4779 116.431 51.7595C116.656 52.0411 116.983 52.2218 117.341 52.262Z" fill="#E6E6E6"/>
<path d="M127.899 29.4341L144.543 31.2816L150.445 31.9366C150.706 31.9656 150.969 31.9428 151.221 31.8695C151.473 31.7963 151.708 31.6741 151.913 31.5099C152.117 31.3456 152.288 31.1426 152.414 30.9124C152.54 30.6822 152.62 30.4292 152.649 30.1681C152.678 29.9069 152.655 29.6426 152.582 29.3902C152.509 29.1378 152.387 28.9024 152.223 28.6972C152.059 28.4921 151.857 28.3213 151.627 28.1946C151.397 28.068 151.145 27.9879 150.885 27.959L143.543 27.1441L128.34 25.4545C127.814 25.3962 127.286 25.5498 126.872 25.8815C126.459 26.2133 126.194 26.696 126.135 27.2235C126.077 27.7511 126.23 28.2803 126.561 28.6948C126.891 29.1094 127.373 29.3753 127.899 29.4341Z" fill="white"/>
<path d="M126.952 36.8136C126.995 36.8213 127.038 36.829 127.081 36.8332L146.402 38.9784L149.627 39.3372C150.154 39.3956 150.682 39.242 151.095 38.9101C151.509 38.5783 151.774 38.0954 151.832 37.5677C151.89 37.04 151.737 36.5108 151.406 36.0964C151.075 35.682 150.593 35.4164 150.067 35.358L145.402 34.8408L130.098 33.1412L127.522 32.8551C127.007 32.7975 126.49 32.943 126.08 33.2606C125.67 33.5783 125.399 34.0434 125.325 34.5574C125.251 35.0715 125.379 35.5943 125.683 36.0154C125.986 36.4364 126.441 36.7227 126.952 36.8136Z" fill="white"/>
<path d="M124.765 43.3564C124.923 43.6198 125.14 43.8431 125.398 44.009C125.657 44.1748 125.95 44.2788 126.255 44.3127L134.174 45.1917L148.277 46.7577L148.28 46.7569L148.731 46.8073L151.006 45.0264C151.02 44.8912 151.02 44.7548 151.007 44.6195C150.959 44.1652 150.757 43.741 150.436 43.4169C150.115 43.0929 149.693 42.8885 149.24 42.8375L147.281 42.6194L139.509 41.7574L133.917 41.1358L126.694 40.3334C126.324 40.2924 125.949 40.3559 125.613 40.5168C125.277 40.6778 124.993 40.9297 124.792 41.2442C124.591 41.5587 124.483 41.9231 124.478 42.2963C124.473 42.6696 124.572 43.0368 124.765 43.3564Z" fill="white"/>
<path d="M135.888 20.4151L140.029 20.8748L141.858 21.0784L144.621 21.3849C145.147 21.4432 145.675 21.2896 146.089 20.9577C146.502 20.6259 146.767 20.143 146.825 19.6153C146.884 19.0876 146.73 18.5584 146.399 18.144C146.068 17.7296 145.586 17.464 145.06 17.4056L136.329 16.4371C135.802 16.3784 135.274 16.5318 134.861 16.8633C134.447 17.1949 134.182 17.6775 134.124 18.205C134.065 18.7325 134.218 19.2617 134.549 19.6762C134.88 20.0907 135.361 20.3565 135.888 20.4151Z" fill="white"/>
<path d="M102.026 31.4949L107.075 52.3974L115.501 54.0032L123.296 55.4905L131.659 57.0854L134.331 57.5951C134.488 57.6247 134.649 57.6206 134.803 57.5831C134.958 57.5455 135.103 57.4754 135.229 57.3773L137.372 55.6992L138.73 54.6368L148.362 47.0961L142.238 21.7386C142.177 21.4863 142.045 21.2569 141.858 21.078C141.693 20.9196 141.492 20.8053 141.272 20.7456C141.052 20.6858 140.82 20.6826 140.598 20.7361L103.026 29.852C102.677 29.9372 102.375 30.158 102.187 30.466C102 30.774 101.942 31.1441 102.026 31.4949Z" fill="#FF4B55"/>
<path d="M113.603 48.1236C113.728 48.6392 114.052 49.084 114.504 49.3604C114.956 49.6368 115.498 49.7222 116.013 49.5978L138.059 44.2488C138.574 44.1232 139.017 43.7984 139.293 43.3455C139.569 42.8926 139.654 42.3487 139.53 41.8328C139.525 41.8073 139.518 41.7821 139.509 41.7574C139.368 41.2601 139.041 40.8367 138.595 40.5759C138.15 40.3152 137.621 40.2373 137.12 40.3586L115.073 45.7076C114.559 45.8329 114.115 46.1577 113.839 46.6106C113.564 47.0636 113.478 47.6077 113.603 48.1236Z" fill="white"/>
<path d="M115.501 54.0032L123.296 55.4905L139.807 51.4844C140.322 51.3595 140.766 51.0348 141.042 50.5818C141.318 50.1287 141.403 49.5843 141.278 49.0685C141.153 48.5526 140.83 48.1075 140.377 47.831C139.925 47.5546 139.382 47.4694 138.868 47.5943L116.821 52.9433C116.36 53.0542 115.955 53.3268 115.677 53.7117C115.61 53.8037 115.551 53.9012 115.501 54.0032Z" fill="white"/>
<path d="M131.659 57.0854L134.331 57.5951C134.488 57.6247 134.649 57.6206 134.803 57.5831C134.958 57.5455 135.103 57.4754 135.229 57.3774L137.373 55.6992L131.659 57.0854Z" fill="white"/>
<path d="M118.045 36.9156C118.17 37.4312 118.494 37.8761 118.946 38.1524C119.398 38.4288 119.941 38.5142 120.456 38.3898L128.995 36.318C129.509 36.1925 129.953 35.8676 130.229 35.4147C130.504 34.9619 130.59 34.4179 130.466 33.9021C130.399 33.6249 130.274 33.3654 130.098 33.1413C129.862 32.8385 129.543 32.6101 129.181 32.4836C128.819 32.3571 128.428 32.3378 128.055 32.4279L119.516 34.4997C119.002 34.6246 118.557 34.9493 118.282 35.4024C118.006 35.8554 117.921 36.3997 118.045 36.9156Z" fill="white"/>
<path d="M123.295 55.4905L131.66 57.0857L134.331 57.5956C134.487 57.6249 134.648 57.6206 134.803 57.5831C134.957 57.5456 135.102 57.4757 135.228 57.378L137.373 55.6995L136.621 55.8821L135.031 57.1247C134.942 57.1945 134.838 57.2444 134.728 57.2712C134.617 57.298 134.502 57.3011 134.391 57.2802L132.413 56.9031L124.048 55.3078L123.295 55.4905ZM148.28 46.7582L148.361 47.0953L148.732 46.8063L148.28 46.7582ZM123.295 55.4905L131.66 57.0857L134.331 57.5956C134.487 57.6249 134.648 57.6206 134.803 57.5831C134.957 57.5456 135.102 57.4757 135.228 57.378L137.373 55.6995L136.621 55.8821L135.031 57.1247C134.942 57.1945 134.838 57.2444 134.728 57.2712C134.617 57.298 134.502 57.3011 134.391 57.2802L132.413 56.9031L124.048 55.3078L123.295 55.4905ZM123.295 55.4905L131.66 57.0857L134.331 57.5956C134.487 57.6249 134.648 57.6206 134.803 57.5831C134.957 57.5456 135.102 57.4757 135.228 57.378L137.373 55.6995L136.621 55.8821L135.031 57.1247C134.942 57.1945 134.838 57.2444 134.728 57.2712C134.617 57.298 134.502 57.3011 134.391 57.2802L132.413 56.9031L124.048 55.3078L123.295 55.4905ZM96.0441 51.578L105.482 90.6545C105.553 90.9432 105.734 91.1924 105.987 91.3471C106.24 91.5019 106.544 91.5498 106.833 91.4801L175.145 74.906C175.433 74.8358 175.681 74.6539 175.836 74.4002C175.99 74.1465 176.038 73.8418 175.968 73.5529L166.53 34.4764C166.487 34.294 166.398 34.1256 166.272 33.9868C166.146 33.848 165.987 33.7433 165.81 33.6824C165.68 33.6363 165.541 33.6155 165.403 33.621C165.242 33.6256 165.084 33.6673 164.941 33.7428C164.875 33.7742 164.813 33.8129 164.755 33.8582L159.149 38.2459L151.007 44.6204L148.279 46.7559L148.28 46.7582L148.277 46.7588L138.274 54.5851L136.621 55.8821L135.031 57.1247C134.942 57.1945 134.838 57.2444 134.728 57.2712C134.617 57.298 134.502 57.3011 134.391 57.2802L132.413 56.9031L124.048 55.3078L115.676 53.712L97.3403 50.2147C97.184 50.1837 97.0228 50.1872 96.8679 50.225C96.6594 50.276 96.4699 50.386 96.322 50.5419C96.2653 50.6031 96.2149 50.6699 96.1715 50.7411C96.0208 50.9924 95.9751 51.2931 96.0441 51.578ZM123.295 55.4905L131.66 57.0857L134.331 57.5956C134.487 57.6249 134.648 57.6206 134.803 57.5831C134.957 57.5456 135.102 57.4757 135.228 57.378L137.373 55.6995L136.621 55.8821L135.031 57.1247C134.942 57.1945 134.838 57.2444 134.728 57.2712C134.617 57.298 134.502 57.3011 134.391 57.2802L132.413 56.9031L124.048 55.3078L123.295 55.4905ZM123.295 55.4905L131.66 57.0857L134.331 57.5956C134.487 57.6249 134.648 57.6206 134.803 57.5831C134.957 57.5456 135.102 57.4757 135.228 57.378L137.373 55.6995L136.621 55.8821L135.031 57.1247C134.942 57.1945 134.838 57.2444 134.728 57.2712C134.617 57.298 134.502 57.3011 134.391 57.2802L132.413 56.9031L124.048 55.3078L123.295 55.4905ZM123.295 55.4905L131.66 57.0857L134.331 57.5956C134.487 57.6249 134.648 57.6206 134.803 57.5831C134.957 57.5456 135.102 57.4757 135.228 57.378L137.373 55.6995L136.621 55.8821L135.031 57.1247C134.942 57.1945 134.838 57.2444 134.728 57.2712C134.617 57.298 134.502 57.3011 134.391 57.2802L132.413 56.9031L124.048 55.3078L123.295 55.4905Z" fill="white"/>
<path d="M123.295 55.4905L131.66 57.0857L134.331 57.5956C134.487 57.6249 134.648 57.6206 134.803 57.5831C134.957 57.5456 135.102 57.4757 135.228 57.378L137.373 55.6995L136.621 55.8821L135.031 57.1247C134.942 57.1945 134.838 57.2444 134.728 57.2712C134.617 57.298 134.502 57.3011 134.391 57.2801L132.413 56.9031L124.048 55.3078L123.295 55.4905ZM148.28 46.7582L148.361 47.0953L148.732 46.8062L148.28 46.7582ZM123.295 55.4905L131.66 57.0857L134.331 57.5956C134.487 57.6249 134.648 57.6206 134.803 57.5831C134.957 57.5456 135.102 57.4757 135.228 57.378L137.373 55.6995L136.621 55.8821L135.031 57.1247C134.942 57.1945 134.838 57.2444 134.728 57.2712C134.617 57.298 134.502 57.3011 134.391 57.2801L132.413 56.9031L124.048 55.3078L123.295 55.4905ZM123.295 55.4905L131.66 57.0857L134.331 57.5956C134.487 57.6249 134.648 57.6206 134.803 57.5831C134.957 57.5456 135.102 57.4757 135.228 57.378L137.373 55.6995L136.621 55.8821L135.031 57.1247C134.942 57.1945 134.838 57.2444 134.728 57.2712C134.617 57.298 134.502 57.3011 134.391 57.2801L132.413 56.9031L124.048 55.3078L123.295 55.4905ZM96.4825 50.7652L96.5239 50.7964C96.5309 50.785 96.543 50.7748 96.5522 50.7628C96.6447 50.6663 96.7596 50.5944 96.8867 50.5534C97.0138 50.5124 97.149 50.5036 97.2803 50.5279L115.502 54.002L123.295 55.4905L131.66 57.0857L134.331 57.5956C134.487 57.6249 134.648 57.6206 134.803 57.5831C134.957 57.5456 135.102 57.4757 135.228 57.378L137.373 55.6995L136.621 55.8821L135.031 57.1247C134.942 57.1945 134.838 57.2444 134.728 57.2712C134.617 57.298 134.502 57.3011 134.391 57.2801L132.413 56.9031L124.048 55.3078L115.676 53.712L97.3403 50.2147C97.184 50.1837 97.0228 50.1872 96.8679 50.225L96.4825 50.7652ZM96.0441 51.578L105.482 90.6545C105.553 90.9432 105.734 91.1924 105.987 91.3471C106.24 91.5019 106.544 91.5498 106.833 91.4801L175.145 74.906C175.433 74.8358 175.681 74.6539 175.836 74.4002C175.99 74.1465 176.038 73.8418 175.968 73.5529L166.53 34.4764C166.487 34.294 166.398 34.1256 166.272 33.9868C166.146 33.848 165.987 33.7433 165.81 33.6824C165.68 33.6363 165.541 33.6155 165.403 33.621C165.242 33.6256 165.084 33.6673 164.941 33.7428C164.875 33.7742 164.813 33.8129 164.755 33.8582L159.149 38.2459L151.007 44.6204L148.279 46.7559L148.28 46.7582L148.277 46.7588L138.274 54.5851L136.621 55.8821L135.031 57.1247C134.942 57.1945 134.838 57.2444 134.728 57.2712C134.617 57.298 134.502 57.3011 134.391 57.2801L132.413 56.9031L124.048 55.3078L115.676 53.712L97.3403 50.2147C97.184 50.1837 97.0228 50.1872 96.8679 50.225C96.6594 50.276 96.4699 50.386 96.322 50.5419C96.2653 50.6031 96.2149 50.6699 96.1715 50.7411C96.0208 50.9924 95.9751 51.2931 96.0441 51.578ZM96.3554 51.5025C96.3275 51.3873 96.3257 51.2673 96.3501 51.1514C96.3745 51.0354 96.4244 50.9264 96.4963 50.8322C96.5028 50.8184 96.5122 50.8062 96.5239 50.7964C96.5309 50.785 96.543 50.7748 96.5522 50.7628C96.6447 50.6663 96.7596 50.5944 96.8867 50.5534C97.0138 50.5124 97.149 50.5036 97.2803 50.5279L115.502 54.002L123.295 55.4905L131.66 57.0857L134.331 57.5956C134.487 57.6249 134.648 57.6206 134.803 57.5831C134.957 57.5456 135.102 57.4757 135.228 57.378L137.373 55.6995L138.73 54.6371L148.361 47.0953L148.732 46.8062L151.005 45.0262L159.101 38.6896L164.954 34.1086C165.043 34.0391 165.146 33.9893 165.255 33.9627C165.286 33.9552 165.317 33.95 165.349 33.9474C165.376 33.9424 165.404 33.9397 165.431 33.9394C165.525 33.9385 165.618 33.9537 165.706 33.9844C165.833 34.0284 165.946 34.1033 166.036 34.2024C166.126 34.3014 166.189 34.4214 166.221 34.5514L175.66 73.6279C175.684 73.7303 175.689 73.8366 175.673 73.9407C175.656 74.0448 175.62 74.1447 175.565 74.2347C175.51 74.3246 175.438 74.4029 175.353 74.4649C175.268 74.527 175.172 74.5716 175.07 74.5963L106.758 91.1705C106.552 91.2202 106.334 91.1857 106.154 91.0748C105.973 90.9639 105.843 90.7855 105.794 90.579L96.3554 51.5025ZM123.295 55.4905L131.66 57.0857L134.331 57.5956C134.487 57.6249 134.648 57.6206 134.803 57.5831C134.957 57.5456 135.102 57.4757 135.228 57.378L137.373 55.6995L136.621 55.8821L135.031 57.1247C134.942 57.1945 134.838 57.2444 134.728 57.2712C134.617 57.298 134.502 57.3011 134.391 57.2801L132.413 56.9031L124.048 55.3078L123.295 55.4905ZM123.295 55.4905L131.66 57.0857L134.331 57.5956C134.487 57.6249 134.648 57.6206 134.803 57.5831C134.957 57.5456 135.102 57.4757 135.228 57.378L137.373 55.6995L136.621 55.8821L135.031 57.1247C134.942 57.1945 134.838 57.2444 134.728 57.2712C134.617 57.298 134.502 57.3011 134.391 57.2801L132.413 56.9031L124.048 55.3078L123.295 55.4905ZM123.295 55.4905L131.66 57.0857L134.331 57.5956C134.487 57.6249 134.648 57.6206 134.803 57.5831C134.957 57.5456 135.102 57.4757 135.228 57.378L137.373 55.6995L136.621 55.8821L135.031 57.1247C134.942 57.1945 134.838 57.2444 134.728 57.2712C134.617 57.298 134.502 57.3011 134.391 57.2801L132.413 56.9031L124.048 55.3078L123.295 55.4905Z" fill="#242424"/>
<path d="M157.34 67.2289C157.187 66.5886 157.292 65.9132 157.635 65.351C157.977 64.7888 158.528 64.3856 159.166 64.2299L167.788 62.138C168.426 61.9856 169.099 62.0928 169.658 62.4362C170.217 62.7796 170.618 63.3312 170.772 63.9701C170.926 64.6089 170.822 65.2831 170.481 65.8448C170.14 66.4066 169.592 66.8101 168.955 66.967L160.333 69.0589C159.694 69.2131 159.02 69.107 158.459 68.764C157.898 68.4209 157.496 67.8688 157.34 67.2289Z" fill="#FF4B55"/>
<path d="M62.0589 59.9712C63.2392 59.9712 64.1959 59.0123 64.1959 57.8293C64.1959 56.6464 63.2392 55.6875 62.0589 55.6875C60.8787 55.6875 59.9219 56.6464 59.9219 57.8293C59.9219 59.0123 60.8787 59.9712 62.0589 59.9712Z" fill="white"/>
</g>
<defs>
<clipPath id="clip0_651_929">
<rect width="176" height="151" fill="white"/>
</clipPath>
</defs>
</svg>
