<svg width="24" height="24" viewBox="0 0 24 24" fill="none" xmlns="http://www.w3.org/2000/svg">
<path d="M6.81 10.839C6.848 10.951 6.848 10.951 6.891 11.077C7.06 11.573 7.197 11.932 7.366 12.295C7.704 13.019 8.06 13.466 8.315 13.551C9.186 13.841 10 13.298 10 12.5C10 12.374 9.965 12.233 9.882 12.045C9.83 11.927 9.76 11.794 9.66 11.618C9.612 11.534 9.399 11.172 9.343 11.074C8.542 9.67802 8.236 8.50302 8.514 6.83602C8.896 4.54402 9.904 2.93002 11.553 2.10602C12.143 1.81102 12.851 2.15802 12.981 2.80402C13.291 4.35202 13.746 5.56502 14.332 6.44502C14.681 6.96802 14.991 7.25002 15.617 7.66802C16.041 7.94502 16.29 8.11202 16.551 8.30202C16.955 8.59702 17.327 8.91302 17.707 9.29302C19.366 10.952 20 12.23 20 14C20 18.418 16.418 22 12 22C7.582 22 4 18.418 4 14C4 12.746 4.289 11.531 4.838 10.432C4.838 10.432 6.061 8.25102 6.81 10.839ZM6 14C6 17.314 8.686 20 12 20C15.314 20 18 17.314 18 14C18 12.816 17.604 12.019 16.293 10.707C15.761 10.175 15.645 10.09 14.508 9.33202C13.681 8.78102 13.185 8.33002 12.668 7.55502C12.153 6.78302 11.734 5.85302 11.407 4.76402C10.966 5.34202 10.658 6.13402 10.487 7.16502C10.296 8.31402 10.487 9.05002 11.078 10.08C11.127 10.165 11.341 10.529 11.396 10.627C11.528 10.857 11.626 11.045 11.711 11.236C11.899 11.66 12 12.067 12 12.5C12 14.702 9.814 16.159 7.684 15.449C6.995 15.219 6.457 14.708 6 13.974V14Z" fill="#98A4A8"/>
</svg>
