<svg width="24" height="23" viewBox="0 0 24 23" fill="none" xmlns="http://www.w3.org/2000/svg">
<path d="M5.85 23C5.06667 23 4.39583 22.7208 3.8375 22.1625C3.27917 21.6042 3 20.9333 3 20.15C3 19.35 3.27917 18.675 3.8375 18.125C4.39583 17.575 5.06667 17.3 5.85 17.3C6.08333 17.3 6.2875 17.3208 6.4625 17.3625C6.6375 17.4042 6.81667 17.4667 7 17.55L9.125 14.9C8.80833 14.5167 8.56667 14.0792 8.4 13.5875C8.23333 13.0958 8.19167 12.5833 8.275 12.05L5.25 11.025C5 11.4417 4.67083 11.7667 4.2625 12C3.85417 12.2333 3.38333 12.35 2.85 12.35C2.06667 12.35 1.39583 12.0708 0.8375 11.5125C0.279167 10.9542 0 10.2833 0 9.5C0 8.7 0.279167 8.025 0.8375 7.475C1.39583 6.925 2.06667 6.65 2.85 6.65C3.65 6.65 4.325 6.925 4.875 7.475C5.425 8.025 5.7 8.7 5.7 9.5V9.6L8.75 10.65C9.05 10.1167 9.4125 9.70833 9.8375 9.425C10.2625 9.14167 10.7333 8.94167 11.25 8.825V5.6C10.6 5.41667 10.0875 5.05833 9.7125 4.525C9.3375 3.99167 9.15 3.43333 9.15 2.85C9.15 2.05 9.42917 1.375 9.9875 0.825C10.5458 0.275 11.2167 0 12 0C12.8 0 13.475 0.275 14.025 0.825C14.575 1.375 14.85 2.05 14.85 2.85C14.85 3.43333 14.6583 3.99167 14.275 4.525C13.8917 5.05833 13.3833 5.41667 12.75 5.6V8.825C13.2667 8.94167 13.7417 9.14167 14.175 9.425C14.6083 9.70833 14.975 10.1167 15.275 10.65L18.3 9.6V9.5C18.3 8.7 18.5792 8.025 19.1375 7.475C19.6958 6.925 20.3667 6.65 21.15 6.65C21.95 6.65 22.625 6.925 23.175 7.475C23.725 8.025 24 8.7 24 9.5C24 10.2833 23.725 10.9542 23.175 11.5125C22.625 12.0708 21.95 12.35 21.15 12.35C20.6167 12.35 20.1417 12.2333 19.725 12C19.3083 11.7667 18.9833 11.4417 18.75 11.025L15.725 12.05C15.8083 12.5833 15.7708 13.0958 15.6125 13.5875C15.4542 14.0792 15.2083 14.5167 14.875 14.9L17 17.55C17.1833 17.4667 17.3625 17.4042 17.5375 17.3625C17.7125 17.3208 17.9167 17.3 18.15 17.3C18.95 17.3 19.625 17.575 20.175 18.125C20.725 18.675 21 19.35 21 20.15C21 20.9333 20.725 21.6042 20.175 22.1625C19.625 22.7208 18.95 23 18.15 23C17.3667 23 16.6958 22.7208 16.1375 22.1625C15.5792 21.6042 15.3 20.9333 15.3 20.15C15.3 19.8167 15.3458 19.5167 15.4375 19.25C15.5292 18.9833 15.6583 18.725 15.825 18.475L13.7 15.825C13.1667 16.1083 12.5958 16.25 11.9875 16.25C11.3792 16.25 10.8083 16.1083 10.275 15.825L8.175 18.5C8.34167 18.75 8.47083 19.0042 8.5625 19.2625C8.65417 19.5208 8.7 19.8167 8.7 20.15C8.7 20.9333 8.425 21.6042 7.875 22.1625C7.325 22.7208 6.65 23 5.85 23ZM2.85 10.85C3.23333 10.85 3.55417 10.7208 3.8125 10.4625C4.07083 10.2042 4.2 9.88333 4.2 9.5C4.2 9.11667 4.07083 8.79583 3.8125 8.5375C3.55417 8.27917 3.23333 8.15 2.85 8.15C2.46667 8.15 2.14583 8.27917 1.8875 8.5375C1.62917 8.79583 1.5 9.11667 1.5 9.5C1.5 9.88333 1.62917 10.2042 1.8875 10.4625C2.14583 10.7208 2.46667 10.85 2.85 10.85ZM5.85 21.5C6.23333 21.5 6.55417 21.3708 6.8125 21.1125C7.07083 20.8542 7.2 20.5333 7.2 20.15C7.2 19.7667 7.07083 19.4458 6.8125 19.1875C6.55417 18.9292 6.23333 18.8 5.85 18.8C5.46667 18.8 5.14583 18.9292 4.8875 19.1875C4.62917 19.4458 4.5 19.7667 4.5 20.15C4.5 20.5333 4.62917 20.8542 4.8875 21.1125C5.14583 21.3708 5.46667 21.5 5.85 21.5ZM12 4.2C12.3833 4.2 12.7042 4.07083 12.9625 3.8125C13.2208 3.55417 13.35 3.23333 13.35 2.85C13.35 2.46667 13.2208 2.14583 12.9625 1.8875C12.7042 1.62917 12.3833 1.5 12 1.5C11.6167 1.5 11.2958 1.62917 11.0375 1.8875C10.7792 2.14583 10.65 2.46667 10.65 2.85C10.65 3.23333 10.7792 3.55417 11.0375 3.8125C11.2958 4.07083 11.6167 4.2 12 4.2ZM12.025 14.75C12.6417 14.75 13.1667 14.5292 13.6 14.0875C14.0333 13.6458 14.25 13.1083 14.25 12.475C14.25 11.8583 14.0333 11.3333 13.6 10.9C13.1667 10.4667 12.6333 10.25 12 10.25C11.3833 10.25 10.8542 10.4667 10.4125 10.9C9.97083 11.3333 9.75 11.8667 9.75 12.5C9.75 13.1167 9.97083 13.6458 10.4125 14.0875C10.8542 14.5292 11.3917 14.75 12.025 14.75ZM18.15 21.5C18.5333 21.5 18.8542 21.3708 19.1125 21.1125C19.3708 20.8542 19.5 20.5333 19.5 20.15C19.5 19.7667 19.3708 19.4458 19.1125 19.1875C18.8542 18.9292 18.5333 18.8 18.15 18.8C17.7667 18.8 17.4458 18.9292 17.1875 19.1875C16.9292 19.4458 16.8 19.7667 16.8 20.15C16.8 20.5333 16.9292 20.8542 17.1875 21.1125C17.4458 21.3708 17.7667 21.5 18.15 21.5ZM21.15 10.85C21.5333 10.85 21.8542 10.7208 22.1125 10.4625C22.3708 10.2042 22.5 9.88333 22.5 9.5C22.5 9.11667 22.3708 8.79583 22.1125 8.5375C21.8542 8.27917 21.5333 8.15 21.15 8.15C20.7667 8.15 20.4458 8.27917 20.1875 8.5375C19.9292 8.79583 19.8 9.11667 19.8 9.5C19.8 9.88333 19.9292 10.2042 20.1875 10.4625C20.4458 10.7208 20.7667 10.85 21.15 10.85Z" fill="#98A4A8"/>
</svg>
